<?xml version="1.0" standalone="no"?>
<!DOCTYPE svg PUBLIC "-//W3C//DTD SVG 1.1//EN" "http://www.w3.org/Graphics/SVG/1.1/DTD/svg11.dtd" >
<!--
2013-9-30: Created.
-->
<svg>
<metadata>
Created by iconfont
</metadata>
<defs>

<font id="iconfont" horiz-adv-x="1024" >
  <font-face
    font-family="iconfont"
    font-weight="500"
    font-stretch="normal"
    units-per-em="1024"
    ascent="896"
    descent="-128"
  />
    <missing-glyph />
    
    <glyph glyph-name="x" unicode="x" horiz-adv-x="1001"
d="M281 543q-27 -1 -53 -1h-83q-18 0 -36.5 -6t-32.5 -18.5t-23 -32t-9 -45.5v-76h912v41q0 16 -0.5 30t-0.5 18q0 13 -5 29t-17 29.5t-31.5 22.5t-49.5 9h-133v-97h-438v97zM955 310v-52q0 -23 0.5 -52t0.5 -58t-10.5 -47.5t-26 -30t-33 -16t-31.5 -4.5q-14 -1 -29.5 -0.5
t-29.5 0.5h-32l-45 128h-439l-44 -128h-29h-34q-20 0 -45 1q-25 0 -41 9.5t-25.5 23t-13.5 29.5t-4 30v167h911zM163 247q-12 0 -21 -8.5t-9 -21.5t9 -21.5t21 -8.5q13 0 22 8.5t9 21.5t-9 21.5t-22 8.5zM316 123q-8 -26 -14 -48q-5 -19 -10.5 -37t-7.5 -25t-3 -15t1 -14.5
t9.5 -10.5t21.5 -4h37h67h81h80h64h36q23 0 34 12t2 38q-5 13 -9.5 30.5t-9.5 34.5q-5 19 -11 39h-368zM336 498v228q0 11 2.5 23t10 21.5t20.5 15.5t34 6h188q31 0 51.5 -14.5t20.5 -52.5v-227h-327z" />
    

    
    <glyph glyph-name="qipao" unicode="&#58881;" d="M545.86026667 238.72853333q0 32.768-12.56106667 62.2592t-33.86026667 50.7904-50.24426666 33.86026667-61.71306667 12.56106667-62.2592-12.56106667-50.7904-33.86026667-33.86026667-50.7904-12.56106666-62.2592 12.56106666-61.71306666 33.86026667-50.24426667 50.7904-33.86026667 62.2592-12.56106666 61.71306667 12.56106666 50.24426666 33.86026667 33.86026667 50.24426667 12.56106667 61.71306666zM751.2064 21.36746667q0 24.02986667-9.28426667 45.8752t-25.66826666 37.6832-38.22933334 25.12213333-45.8752 9.28426667q-25.12213333 0-46.42133333-9.28426667t-37.13706667-25.12213333-25.12213333-37.6832-9.28426667-45.8752q0-25.12213333 9.28426667-46.42133334t25.12213333-37.6832 37.13706667-25.66826666 46.42133333-9.28426667q24.02986667 0 45.8752 9.28426667t38.22933334 25.66826666 25.66826666 37.6832 9.28426667 46.42133334zM548.0448 424.41386667q-48.05973333 0-89.56586667 18.0224t-72.63573333 49.152-49.152 72.63573333-18.0224 88.4736 18.0224 89.01973333 49.152 72.63573334 72.63573333 48.60586666 89.56586667 18.0224q46.96746667 0 88.4736-18.0224t72.63573333-48.60586666 49.152-72.63573334 18.0224-89.01973333-18.0224-88.4736-49.152-72.63573333-72.63573333-49.152-88.4736-18.0224zM430.08 754.2784q-18.56853333 0-31.67573333-13.1072t-13.1072-31.67573333 13.1072-31.67573334 31.67573333-13.1072 31.67573333 13.1072 13.1072 31.67573334-13.1072 31.67573333-31.67573333 13.1072z"  horiz-adv-x="1024" />

    
    <glyph glyph-name="good" unicode="&#58889;" d="M646.050 735.927c63.722 0 89.551-42.44 89.551-111.927-2.711-83.625-25.216-166.87-60.721-242.48 49.877-4.809 100.191-3.702 150.241-3.76 84.391 0 134.326-34.977 134.326-100.732 0.641-26.67-13.994-48.561-34.95-63.921l0.64-0.905c18.189-41.272 16.82-81.789-23.028-111.023l0.643-0.904c18.189-41.243 16.82-81.789-23.002-111.024l0.613-0.904c12.594-34.978 9.795-19.033 11.923-47.102 0-61.123-45.271-100.734-111.909-100.734l-134.325 0c-74.014 0-158.521 7.054-233.321 18.246-19.299 3.178-38.595 6.12-57.718 10.232v-6.093c0-12.357-10.028-22.385-22.388-22.385l-246.264-0c-12.358 0-22.387 10.027-22.387 22.385l0 537.248c0 12.358 10.028 22.386 22.387 22.386h246.264c12.359 0 22.388-10.027 22.388-22.386v-3.848c49.089 29.614 85.003 76.541 120.886 120.234 9.387 12.534 18.337 26.262 27.256 41.623 12.593 21.743 54.482 107.351 65.122 124.373 21.047 33.693 44.019 53.398 77.774 53.398zM108.747 377.76v-492.477h201.487v492.477h-201.487zM646.050 691.155c-44.777 0-67.164-111.926-134.326-201.468-41.394-56.809-91.299-105.134-150.299-143.523l-6.413-2.973v-427.623c95.089-23.347 193.589-26.67 291.039-30.285 0 0 89.551 0 134.325 0 44.746 0 67.134 22.385 67.134 55.964 0 33.577-22.389 33.577-22.389 55.963 0 22.385 44.776 22.385 44.776 55.963 0 33.578-22.387 33.578-22.387 55.964 0 22.384 44.775 22.384 44.775 55.963 0 33.577-22.388 33.577-22.388 55.963 0 22.385 44.776 22.385 44.776 55.964 0 33.578-22.388 55.963-89.552 55.963-156.684 0-223.847 0-201.458 44.77 24.4 48.793 67.163 156.698 67.163 246.239-0 44.775-9.737 67.159-44.775 67.159z"  horiz-adv-x="1024" />

    
    <glyph glyph-name="31daipingjia" unicode="&#58880;" d="M860.377432 762.785999 163.652244 762.785999c-41.643446 0-75.546603-33.903158-75.546603-75.546603l0-510.917342c0-41.643446 33.903158-75.546603 75.546603-75.546603l252.743328 0 95.618754-95.559403 95.589079 95.559403 252.774027 0c41.643446 0 75.516928 33.903158 75.516928 75.546603L935.89436 687.238372C935.89436 728.882841 902.020878 762.785999 860.377432 762.785999zM877.749078 664.016485l0-464.473567c0-22.381753-18.21178-40.593534-40.593534-40.593534L579.520813 158.949384l-67.506487-67.565838-67.536162 67.565838L186.874131 158.949384c-22.412452 0-40.624233 18.21178-40.624233 40.593534L146.249899 664.016485c0 22.412452 18.21178 40.624233 40.624233 40.624233l650.28039 0C859.537298 704.639694 877.749078 686.428937 877.749078 664.016485zM302.83519 492.250446 741.266637 492.250446c14.851243 0 26.972305 12.481266 26.972305 27.812439 0 15.361873-12.121062 27.872814-26.972305 27.872814L302.83519 547.9357c-14.851243 0-26.942629-12.510942-26.942629-27.872814C275.892561 504.731712 287.983947 492.250446 302.83519 492.250446zM741.266637 399.421224 302.83519 399.421224c-14.851243 0-26.942629-12.510942-26.942629-27.842115 0-15.331173 12.091386-27.842115 26.942629-27.842115L741.266637 343.736994c14.851243 0 26.972305 12.510942 26.972305 27.842115C768.238942 386.910283 756.11788 399.421224 741.266637 399.421224z"  horiz-adv-x="1024" />

    
    <glyph glyph-name="tushu" unicode="&#58900;" d="M629.361778-89.404444M766.976-206.88l-345.884444 0.568889-92.728889-0.568889c-61.610667 0-111.160889 2.389333-141.596444 32.312889-30.663111 30.151111-36.807111 83.057778-36.807111 158.606222L149.959111 615.904c0 167.196444 38.058667 190.976 178.631111 190.976l345.656889-0.568889 92.501333 0.568889c140.572444 0 178.631111-23.779556 178.631111-190.976l0-631.864889C945.379556-183.100444 907.377778-206.88 766.976-206.88zM421.148444-163.644444l345.884444-0.568889c116.394667 0 135.736889 4.096 135.736889 148.252444L902.769778 615.904c0 144.270222-19.342222 148.309333-135.964444 148.309333l-345.656889-0.568889-92.501333 0.568889c-116.565333 0-135.964444-4.096-135.964444-148.309333l0-631.864889c0-74.24 6.997333-111.388444 24.064-128.227556 17.237333-16.952889 51.143111-20.081778 111.672889-20.081778L421.148444-163.644444zM99.953778 557.763556l142.791111 0 0-42.666667-142.791111 0 0 42.666667ZM99.953778 419.068444l142.791111 0 0-42.666667-142.791111 0 0 42.666667ZM99.953778 280.430222l142.791111 0 0-42.666667-142.791111 0 0 42.666667ZM99.953778 141.735111l142.791111 0 0-42.666667-142.791111 0 0 42.666667ZM709.859556 785.034667l42.666667 0 0-970.012444-42.666667 0 0 970.012444Z"  horiz-adv-x="1024" />

    
    <glyph glyph-name="home" unicode="&#60187;" d="M863.08571413 325.48571413l0-292.57142826q0-15.83786667-11.5468192-27.46270507t-27.46270506-11.5468192l-234.0571424 0 0 234.0571424-156.03809494 0 0-234.0571424-234.0571424 0q-15.83786667 0-27.46270506 11.5468192t-11.5468192 27.46270507l0 292.57142826q0 0.62415253 0.31207573 1.7944384t0.31207573 1.7944384l350.4615616 288.90453334 350.4615616-288.90453334q0.62415253-1.24830507 0.62415254-3.66689493zM998.99489493 367.5379808l-37.7612192-45.09500907q-4.8371808-5.46133333-12.79512426-6.7096384l-1.7944384 0q-7.9579424 0-12.79512427 4.29104747l-421.77097173 351.70986667-421.77097174-351.70986667q-7.33379093-4.8371808-14.5895616-4.29104747-7.9579424 1.24830507-12.79512426 6.7096384l-37.7612192 45.09500907q-4.8371808 6.08548587-4.29104747 14.35550507t6.7096384 13.1072l438.23299093 365.1291424q19.5047616 15.83786667 46.34331414 15.83786666t46.34331413-15.83786666l148.70430507-124.3623616 0 118.82300906q0 8.50407573 5.46133333 14.04342827t14.04342827 5.46133333l117.02857173 0q8.50407573 0 14.04342827-5.46133333t5.46133333-14.04342827l0-248.72472426 133.49059093-110.94308587q6.08548587-4.8371808 6.7096384-13.1072t-4.29104746-14.35550507z"  horiz-adv-x="1024" />

    
    <glyph glyph-name="shoucang1" unicode="&#58922;" d="M1024.375 498.08l-353.736 51.424L512.422 870.017 354.203 549.504 0.47 498.08l255.935-249.495-60.38-352.304 316.396 166.324 316.397-166.324-60.381 352.304L1024.375 498.08zM512.422 141.691 288.936 24.225l42.717 248.777L150.925 449.226l249.815 36.307 111.681 226.352 111.722-226.373 249.774-36.309L693.191 273.002l42.715-248.818L512.422 141.691z"  horiz-adv-x="1025" />

    
    <glyph glyph-name="suoyou" unicode="&#58924;" d="M376.228 894.37 81.42 894.37c-44.068 0-79.789-35.721-79.789-79.775L1.631 519.76c0-44.056 35.721-79.777 79.789-79.777l294.808 0c44.067 0 79.787 35.721 79.787 79.777L456.015 814.595C456.015 858.649 420.296 894.37 376.228 894.37zM399.218 556.616c0-33.043-26.79-59.834-59.849-59.834L118.277 496.782c-33.059 0-59.849 26.791-59.849 59.834l0 221.12c0 33.046 26.79 59.834 59.849 59.834l221.092 0c33.059 0 59.849-26.79 59.849-59.834L399.218 556.616zM944.223 894.37 649.387 894.37c-44.053 0-79.771-35.721-79.771-79.775L569.616 519.76c0-44.056 35.719-79.777 79.771-79.777l294.836 0c44.055 0 79.777 35.721 79.777 79.777L1024 814.595C1024 858.649 988.277 894.37 944.223 894.37zM967.199 556.616c0-33.043-26.787-59.834-59.848-59.834L686.26 496.782c-33.059 0-59.848 26.791-59.848 59.834l0 221.12c0 33.046 26.789 59.834 59.848 59.834l221.092 0c33.061 0 59.848-26.79 59.848-59.834L967.2 556.616zM944.223 326.387 649.387 326.387c-44.053 0-79.771-35.72-79.771-79.774l0-294.835c0-44.056 35.719-79.777 79.771-79.777l294.836 0c44.055 0 79.777 35.722 79.777 79.777L1024 246.612C1024 290.667 988.277 326.387 944.223 326.387zM967.199-11.366c0-33.043-26.787-59.835-59.848-59.835L686.26-71.201c-33.059 0-59.848 26.792-59.848 59.835L626.412 209.753c0 33.045 26.789 59.835 59.848 59.835l221.092 0c33.061 0 59.848-26.79 59.848-59.835L967.2-11.366zM377.31 326.387 80.338 326.387c-43.472 0-78.707-35.235-78.707-78.694l0-296.998c0-43.458 35.236-78.693 78.707-78.693L377.31-127.998c43.473 0 78.707 35.235 78.707 78.693L456.017 247.692C456.015 291.151 420.782 326.387 377.31 326.387zM399.218-11.366c0-33.043-26.79-59.835-59.849-59.835L118.277-71.201c-33.059 0-59.849 26.792-59.849 59.835L58.428 209.753c0 33.045 26.79 59.835 59.849 59.835l221.092 0c33.059 0 59.849-26.79 59.849-59.835L399.218-11.366z"  horiz-adv-x="1024" />

    
    <glyph glyph-name="chahao" unicode="&#58897;" d="M511.998977-65.610044c-248.306272 0-449.607998 201.307865-449.607998 449.614138S263.692704 833.610044 511.998977 833.610044c248.364601 0 449.610044-201.299679 449.610044-449.606974S760.363577-65.610044 511.998977-65.610044L511.998977-65.610044zM718.186989 515.078361c8.457626 8.462742 8.457626 22.202675 0 30.658254l-45.927005 45.871747c-8.459672 8.459672-22.138206 8.459672-30.599925 0L511.603981 461.55126 381.546879 591.608362c-8.459672 8.459672-22.1423 8.459672-30.599925 0l-45.927005-45.871747c-8.457626-8.455579-8.457626-22.195511 0-30.658254l130.057101-130.053008L305.019948 254.968252c-8.457626-8.455579-8.457626-22.140253 0-30.599925L350.946954 178.444391c8.457626-8.404414 22.140253-8.404414 30.599925 0l130.057101 130.057101L641.661082 178.444391c8.461719-8.404414 22.140253-8.404414 30.599925 0l45.927005 45.922912c8.457626 8.459672 8.457626 22.144346 0 30.599925L588.129888 385.02433 718.186989 515.078361 718.186989 515.078361z"  horiz-adv-x="1024" />

    
    <glyph glyph-name="jieshu" unicode="&#58945;" d="M212.992 369.664 212.992 369.664 212.992 369.664 215.04 369.664 212.992 369.664ZM817.152 693.248 817.152 693.248C737.28 773.12 628.736 820.224 509.952 820.224c-118.784 0-229.376-49.152-307.2-126.976l0 0c-77.824-77.824-126.976-186.368-126.976-307.2 0-118.784 49.152-229.376 126.976-307.2 77.824-79.872 188.416-126.976 307.2-126.976 120.832 0 229.376 49.152 307.2 126.976 79.872 77.824 126.976 186.368 126.976 307.2C946.176 506.88 897.024 615.424 817.152 693.248zM770.048 125.952c-65.536-65.536-157.696-108.544-260.096-108.544-102.4 0-194.56 40.96-260.096 108.544C184.32 191.488 141.312 283.648 141.312 386.048s40.96 194.56 108.544 260.096C317.44 711.68 409.6 754.688 509.952 754.688c100.352 0 192.512-40.96 258.048-106.496l2.048-2.048c65.536-65.536 108.544-157.696 108.544-260.096S837.632 191.488 770.048 125.952zM724.992 599.04 724.992 599.04 296.96 599.04 296.96 171.008 724.992 171.008 724.992 599.04Z"  horiz-adv-x="1024" />

    
    <glyph glyph-name="books" unicode="&#58883;" d="M48.86471253-81.9847168c7.63086293-5.74797867 15.26281707-9.5388512 24.75473174-9.5388512 19.0787936-1.90798827 598.49823147-1.90798827 604.1752608-1.90798827l3.81488533 0c11.49377493 0 19.0787936 5.699952 24.80275947 15.2388032 5.7228736 9.5388512 7.63086293 19.0787936 7.63086293 28.59472214L714.0432128 339.2233952l0 57.14250987 0 0c5.7228736-40.0175488 13.30789227-80.01217493 19.03185813-120.0526464 7.6777984-45.74151467 15.26281707-91.50595093 22.8947712-137.22345067 7.63086293-43.83352533 15.21478933-85.78307627 20.9398464-129.5925888 3.81488533-22.87075733 7.6777984-43.8575392 11.44683947-66.72829653 1.90689707-20.96276907 13.35373653-32.38668587 32.38559467-36.2015712l135.36239786 0c7.58501867 0 15.26281707 1.90798827 22.84783467 9.5388512 5.72396587 7.60794027 9.5388512 15.2388032 9.5388512 22.86966506l0 13.33190614c-1.90689707 15.2398944-1.90689707 32.38668587-3.81488533 47.64841066-3.81597653 28.57180053-7.63086293 59.07341973-11.399904 87.66705174-3.8618208 24.7776544-7.6777984 49.53347733-9.58578667 76.24313386-3.81597653 28.57070933-7.58501867 59.0963424-11.399904 87.66595947-3.81597653 24.7787456-7.6777984 49.5345696-9.58578667 76.24422507-3.76904107 28.59363093-7.5839264 59.0963424-11.399904 87.66595946-3.81488533 24.7776544-7.5839264 49.5564-9.5388512 76.24313387-3.81488533 28.59363093-7.63086293 59.0963424-11.399904 87.66705173-3.81488533 24.7776544-7.63086293 49.5564-9.5388512 76.24313387-3.8618208 28.59363093-7.63086293 59.0963424-11.44683946 87.66595947-3.81488533 26.68564267-7.63086293 53.34945493-11.399904 80.0591104-1.90798827 13.33190613-5.76981013 22.87075733-17.16971414 32.40960853-5.7228736 3.79196373-11.44683947 3.79196373-19.0787936 5.699952L69.80346773 861.43046507c-5.6770304-1.90798827-9.49300693-1.90798827-15.26281706-3.81597654C43.14074773 849.98580907 35.5098848 840.46987947 35.5098848 827.11505173l0-884.3450368c1.90798827-11.42391787 3.81597653-19.0787936 13.35482773-24.7776544L48.86471253-81.9847168zM794.0783104 819.4841888l17.16971413 0 13.30789227 0c3.81597653 0 5.76981013-1.88506667 5.76981013-5.7010432 1.90798827-19.0787936 5.6770304-40.0175488 7.58501867-59.07232853 5.7228736-43.8575392 11.44574827-87.68997333 17.16971413-131.50057707 5.7228736-43.856448 11.399904-87.68997333 17.12386987-131.50057707 5.76981013-43.856448 11.44683947-87.68997333 17.16971413-133.43039573 5.6770304-43.83352533 11.44683947-87.66705173 17.17080534-131.52349867 5.67593813-43.83352533 11.399904-87.64412907 17.16971413-131.50057706 5.67593813-43.83352533 11.399904-87.68997333 17.0780256-131.50057707 0-5.7228736 1.90689707-9.5388512 1.90689707-15.2617248 0-1.90798827 0-3.81597653-3.76904107-3.81597653l-32.38559467 0c-3.81597653 0-3.81597653 1.90798827-3.81597653 5.74688746-1.90798827 19.03294933-5.76981013 40.0175488-7.6777984 59.07341974-5.6770304 43.80951253-11.399904 87.66595947-17.0780256 131.49948586-5.76981013 43.8575392-11.49268373 87.66705173-17.16971413 131.50057707-5.7228736 43.8575392-11.49268373 87.66705173-17.16971414 133.40856533-5.7228736 43.856448-11.399904 87.68997333-17.16971413 131.52349867-5.72396587 43.83243413-11.399904 87.66595947-17.12386987 131.52240747-5.76981013 43.81060373-11.44683947 87.64412907-17.16971413 131.50057706 0 5.7010432-1.90798827 9.5388512-1.90798827 15.2398944C790.26233387 819.4841888 790.26233387 819.4841888 794.0783104 819.4841888L794.0783104 819.4841888zM714.0421216 819.4841888l30.4786976 0c3.81597653 0 5.7228736-1.88506667 5.7228736-5.7010432 3.81597653-22.87075733 5.72396587-45.7404224 9.5388512-66.70319147 5.72396587-43.83352533 11.399904-87.66705173 17.12386987-131.52349866 5.76981013-43.83352533 11.44683947-87.64303787 17.16971413-131.50057707 5.7228736-43.83352533 11.44683947-87.68997333 17.16971413-131.50057707 5.6770304-43.83243413 11.399904-87.68997333 19.0787936-133.43039573 5.6770304-43.81060373 11.399904-87.66705173 17.12386987-131.50057707 5.7228736-45.74151467 13.35373653-91.48302827 19.03185813-137.20052906 0-3.8388992 0-3.8388992-3.76904106-3.8388992l-17.16971414 0-13.30789226 0c-3.8618208 0-5.76981013 1.90798827-5.76981014 5.7228736-5.72396587 40.0175488-11.399904 81.96709973-17.12386986 121.98464853-5.76981013 43.83352533-11.44683947 87.68997333-17.16971414 131.50057707-5.7228736 43.83352533-11.44683947 87.68997333-17.16971413 131.50057706-5.6770304 43.83243413-11.399904 87.68997333-17.16971413 131.52349867-5.6770304 43.83243413-11.399904 87.66595947-17.0780256 133.40747413-5.76981013 43.8575392-11.49268373 87.66705173-17.16971414 131.50057707-3.81597653 26.68564267-7.63086293 55.28145707-11.44683946 81.96709973C710.22614507 819.4841888 712.13413333 819.4841888 714.0421216 819.4841888L714.0421216 819.4841888zM348.06634667-53.41400853000005L214.7047168-53.41400853000005 81.2503072-53.41400853000005c-3.81597653 0-5.6770304 0-5.6770304 5.7228736l0 68.61117973c0 3.81597653 1.8610528 5.72396587 5.6770304 5.72396587l268.769872 0c3.81597653 0 5.6770304-1.90798827 5.6770304-5.72396587l0-68.61117973C353.8361568-53.41400853000005 351.88232427-53.41400853000005 348.06634667-53.41400853000005L348.06634667-53.41400853000005zM399.5776704 818.4363232000001l264.86111573 0c5.76981013 0 5.76981013-1.90689707 5.76981014-5.74688747l0-429.6554368 0-310.6495648c0-5.7228736-1.90798827-7.63086293-7.6777984-7.63086293L397.66968213 64.75357120000001c-5.7228736 0-5.7228736 1.90798827-5.7228736 5.7228736L391.94680853 810.82838293C391.94680853 816.52942613 393.8547968 818.4363232000001 399.5776704 818.4363232000001L399.5776704 818.4363232000001zM397.66968213 26.644010669999943l133.40856534 0 133.36162986 0c3.8618208 0 5.76981013-1.90798827 5.76981014-5.72396587l0-68.61117973c0-3.8388992-1.90798827-5.7228736-5.76981014-5.7228736l-268.72293653 0c-3.76904107 0-5.6770304 1.88506667-5.6770304 5.7228736l0 68.61117973C391.94680853 24.736022400000024 393.8547968 26.644010669999943 397.66968213 26.644010669999943L397.66968213 26.644010669999943zM81.2503072 818.4363232000001l264.95389547 0c5.6770304 0 5.6770304-1.90689707 5.6770304-5.74688747l0-740.30500266c0-5.74688747-1.862144-5.74688747-5.6770304-5.74688747L81.2503072 66.63754667c-5.6770304 0-5.6770304 1.93200213-5.6770304 5.74688746L75.57327787 383.03399893000005 75.57327787 810.82838293C75.57327787 816.52942613 75.57327787 818.4363232000001 81.2503072 818.4363232000001L81.2503072 818.4363232000001zM81.2503072 818.4363232000001M286.3645312 707.94545067L140.25386987 707.94545067c-2.88490453 0-2.88490453 0-2.88490454-3.8618208l0-30.4786976c0-3.81597653 1.4429984-5.7010432 4.3737472-5.7010432l71.5659424 0 73.05587627 0c2.88490453 0 4.3737472 0 4.3737472 5.7010432l0 30.4786976C289.24943573 707.94545067 289.24943573 707.94545067 286.3645312 707.94545067L286.3645312 707.94545067zM286.3645312 707.94545067M286.3645312 627.88634027L140.25386987 627.88634027c-2.88490453 0-2.88490453 0-2.88490454-3.8618208l0-30.4786976c0-3.76904107 1.4429984-5.7010432 4.3737472-5.7010432l71.5659424 0 73.05587627 0c2.88490453 0 4.3737472 0 4.3737472 5.7010432l0 30.4786976C289.24943573 625.978352 289.24943573 627.88634027 286.3645312 627.88634027L286.3645312 627.88634027zM286.3645312 627.88634027M286.3645312 547.82832107L140.25386987 547.82832107c-2.88490453 0-2.88490453 0-2.88490454-3.81488534l0-30.5016192c0-3.79305493 1.4429984-5.7010432 4.3737472-5.7010432l71.5659424 0 73.05587627 0c2.88490453 0 4.3737472 0 4.3737472 5.7010432L290.73827733 544.0134346699999C289.24943573 545.89741013 289.24943573 547.82832107 286.3645312 547.82832107L286.3645312 547.82832107zM286.3645312 547.82832107M606.64572693 707.94545067L460.58090987 707.94545067c-2.97877653 0-2.97877653 0-2.97877654-3.8618208l0-30.4786976c0-3.81597653 1.48884267-5.7010432 4.42068267-5.7010432l71.5659424 0 73.05587627 0c2.8859968 0 4.3748384 0 4.3748384 5.7010432l0 30.4786976C609.53063147 707.94545067 609.53063147 707.94545067 606.64572693 707.94545067L606.64572693 707.94545067zM606.64572693 707.94545067M606.64572693 627.88634027L460.58090987 627.88634027c-2.97877653 0-2.97877653 0-2.97877654-3.8618208l0-30.4786976c0-3.76904107 1.48884267-5.7010432 4.42068267-5.7010432l71.5659424 0 73.05587627 0c2.8859968 0 4.3748384 0 4.3748384 5.7010432l0 30.4786976C609.53063147 625.978352 609.53063147 627.88634027 606.64572693 627.88634027L606.64572693 627.88634027zM606.64572693 627.88634027M606.64572693 547.82832107L460.58090987 547.82832107c-2.97877653 0-2.97877653 0-2.97877654-3.81488534l0-30.5016192c0-3.79305493 1.48884267-5.7010432 4.42068267-5.7010432l71.5659424 0 73.05587627 0c2.8859968 0 4.3748384 0 4.3748384 5.7010432L611.01947413 544.0134346699999C609.53063147 545.89741013 609.53063147 547.82832107 606.64572693 547.82832107L606.64572693 547.82832107zM606.64572693 547.82832107"  horiz-adv-x="1024" />

    
    <glyph glyph-name="zanwushuju" unicode="&#58927;" d="M988.4377216 622.2475136l0.02619627 0L511.9961792 860.4753792 36.39402133 622.68194133l-0.88632 0L35.50770133 145.75903573000005l476.48847787-238.23441493 476.4950272 238.23441493L988.4912064 622.2475136 988.4377216 622.2475136 988.4377216 622.2475136 988.4377216 622.2475136zM511.9961792 802.75981867l358.30015893-179.60633814-136.44191786-68.785824L373.834016 733.4369632 511.9961792 802.75981867 511.9961792 802.75981867 511.9961792 802.75981867zM311.39760213 699.642208l364.6430208-175.69321493-164.07064-79.4685952L153.70147733 622.2475136 311.39760213 699.642208 311.39760213 699.642208 311.39760213 699.642208zM95.0679424 561.9843296l18.93689493 0-18.93689493 0.6963936 0 29.77684587L482.22588267 398.87314133l0-416.929328L95.0679424 175.52387520000002 95.0679424 561.9843296 95.0679424 561.9843296 95.0679424 561.9843296zM928.924416 532.8907786699999l0-357.36690454L541.76538453-18.05618666999999 541.76538453 398.87314133 928.924416 592.45756907 928.924416 532.8907786699999 928.924416 532.8907786699999 928.924416 532.8907786699999z"  horiz-adv-x="1024" />

    
    <glyph glyph-name="zanting" unicode="&#58932;" d="M512-128c-281.6 0-512 230.4-512 512s230.4 512 512 512 512-230.4 512-512-230.4-512-512-512v0zM512 844.8c-256 0-460.8-204.8-460.8-460.8s204.8-460.8 460.8-460.8 460.8 204.8 460.8 460.8-204.8 460.8-460.8 460.8v0zM384 710.4c32 0 64-25.6 64-64v-505.6c0-32-32-64-64-64v0c-32 0-64 25.6-64 64v512c0 32 32 57.6 64 57.6v0 0zM640 710.4c32 0 64-25.6 64-64v-505.6c0-32-32-64-64-64v0c-32 0-64 25.6-64 64v512c0 32 32 57.6 64 57.6v0 0z"  horiz-adv-x="1024" />

    
    <glyph glyph-name="book" unicode="&#58884;" d="M559.936 751.936l0-745.344 42.112 51.84c6.4 7.872 18.112 9.216 26.176 3.008 1.152-0.896 2.112-1.856 3.008-3.008l0.064 0.128 38.016-46.656L669.312 780.608 559.936 751.936 559.936 751.936zM160.512 337.024C153.536 334.336 145.664 337.792 142.976 344.768 140.288 351.744 143.68 359.616 150.72 362.368c42.496 16.832 88.384 24.768 135.168 24.768 48.512 0 98.24-8.512 146.624-24.512 7.104-2.368 11.008-10.048 8.64-17.216C438.784 338.304 431.104 334.4 424 336.832 378.368 351.872 331.52 359.936 285.888 359.936 242.24 359.936 199.872 352.576 160.512 337.024L160.512 337.024zM160.512 423.936C153.536 421.248 145.664 424.64 142.976 431.68 140.288 438.656 143.68 446.592 150.72 449.28c42.496 16.896 88.384 24.832 135.168 24.832 48.512 0 98.24-8.512 146.624-24.512 7.104-2.368 11.008-10.048 8.64-17.216C438.784 425.216 431.104 421.312 424 423.68 378.368 438.784 331.52 446.848 285.888 446.848 242.24 446.848 199.872 439.552 160.512 423.936L160.512 423.936zM160.512 502.848C153.536 500.096 145.664 503.616 142.976 510.592 140.288 517.568 143.68 525.44 150.72 528.192c42.496 16.896 88.384 24.832 135.168 24.832 48.512 0 98.24-8.576 146.624-24.576 7.104-2.304 11.008-10.048 8.64-17.216C438.784 504.128 431.104 500.224 424 502.656 378.368 517.696 331.52 525.824 285.888 525.824 242.24 525.824 199.872 518.464 160.512 502.848L160.512 502.848zM160.512 585.92c-6.976-2.752-14.848 0.704-17.536 7.68C140.288 600.64 143.68 608.512 150.72 611.264c42.496 16.832 88.384 24.768 135.168 24.768 48.512 0 98.24-8.512 146.624-24.512 7.104-2.368 11.008-10.048 8.64-17.216C438.784 587.136 431.104 583.296 424 585.664 378.368 600.704 331.52 608.768 285.888 608.768 242.24 608.768 199.872 601.472 160.512 585.92L160.512 585.92zM160.512 661.184c-6.976-2.688-14.848 0.704-17.536 7.68C140.288 675.84 143.68 683.776 150.72 686.528 193.216 703.36 239.104 711.296 285.888 711.296c48.512 0 98.24-8.512 146.624-24.512 7.104-2.368 11.008-10.048 8.64-17.216C438.784 662.464 431.104 658.56 424 660.928 378.368 675.968 331.52 684.032 285.888 684.032 242.24 684.032 199.872 676.672 160.512 661.184L160.512 661.184zM983.36 693.44C1005.888 692.224 1024 673.92 1024 651.712l0-570.048c0-22.976-19.392-41.792-43.008-41.792l-274.24 0 0-80.128-0.064 0c0-5.248-2.432-10.624-7.04-14.144-8.128-6.336-19.84-4.992-26.24 2.88l-56.768 69.376-59.776-73.472C553.536-60.608 547.712-64 541.248-64c-10.368 0-18.752 8.256-18.752 18.24l0 85.632L43.008 39.872C19.392 39.872 0 58.688 0 81.664L0 651.712C0 672.64 16.064 690.176 36.8 693.056L36.8 748.992c0 11.904 7.232 22.208 17.728 26.752C135.552 815.552 214.976 833.152 293.12 832c73.984-1.152 146.112-19.072 216.704-50.88C586.944 817.152 662.656 833.088 737.28 832c78.336-1.216 154.624-21.248 229.12-56.64 10.752-5.12 17.024-15.552 17.024-26.368l0 0L983.424 693.44 983.36 693.44zM706.752 219.712c10.112 0.512 20.352 0.704 30.528 0.576 63.232-1.088 125.12-15.36 185.792-40.96l0 551.04c-61.504 27.008-123.776 42.176-186.816 43.2-9.792 0.128-19.648-0.064-29.504-0.64L706.752 219.712 706.752 219.712zM292.16 773.504C228.736 774.464 163.776 761.024 97.088 730.688l0-550.656c66.304 28.544 131.584 41.344 196.032 40.256 63.296-1.088 125.248-15.36 185.92-40.96l0 551.04C417.408 757.376 355.2 772.544 292.16 773.504z"  horiz-adv-x="1024" />

    
    <glyph glyph-name="yuanquanweixuanfuben" unicode="&#58895;" d="M510.756683-63.99936c-60.499909 0-119.200846 11.853979-174.473707 35.232432-53.376675 22.577205-101.30936 54.893214-142.465712 96.049566-41.156352 41.154305-73.471338 89.086991-96.048543 142.464689-23.378453 55.271838-35.231409 113.972774-35.231409 174.472684 0 60.499909 11.852956 119.200846 35.231409 174.473707 22.576181 53.376675 54.892191 101.30936 96.048543 142.465712 41.156352 41.156352 89.089038 73.472362 142.465712 96.048543 55.271838 23.378453 113.972774 35.231409 174.473707 35.231409 60.498886 0 119.200846-11.852956 174.472684-35.231409 53.376675-22.577205 101.30936-54.893214 142.465712-96.049566 41.157375-41.155329 73.472362-89.088014 96.048543-142.465712 23.378453-55.269791 35.232432-113.971751 35.232432-174.473707 0-60.501956-11.853979-119.203916-35.233456-174.472684-22.577205-53.378721-54.892191-101.310384-96.04752-142.464689-41.156352-41.157375-89.089038-73.473385-142.464689-96.049566C629.956505-52.145381 571.255569-63.99936 510.756683-63.99936zM510.756683 801.740196c-56.368822 0-111.047142-11.037381-162.514327-32.806173-49.717332-21.028942-94.369298-51.135634-132.716674-89.481987-38.347376-38.347376-68.453045-82.999342-89.481987-132.716674-21.768793-51.467185-32.806173-106.145505-32.806173-162.514327 0-56.368822 11.037381-111.047142 32.806173-162.513304 21.029966-49.719378 51.135634-94.372368 89.481987-132.716674 38.347376-38.3484 82.999342-68.454068 132.716674-89.481987 51.468209-21.769816 106.145505-32.80822 162.514327-32.80822s111.046119 11.037381 162.514327 32.80822c49.717332 21.028942 94.369298 51.134611 132.715651 89.481987 38.347376 38.34533 68.453045 82.996273 89.480964 132.715651 21.769816 51.465139 32.80822 106.143459 32.80822 162.514327 0 56.370869-11.037381 111.048165-32.80822 162.514327-21.028942 49.718355-51.134611 94.371344-89.480964 132.717697-38.347376 38.347376-82.999342 68.453045-132.716674 89.481987C621.803825 790.702815 567.125505 801.740196 510.756683 801.740196z"  horiz-adv-x="1024" />

    
    <glyph glyph-name="huo" unicode="&#58988;" d="M324.26666667-107.51999999999998c-64.85333333 136.53333333-30.72 215.04 20.48 286.72 54.61333333 81.92 68.26666667 160.42666667 68.26666666 160.42666667s44.37333333-54.61333333 27.30666667-143.36c75.09333333 85.33333333 88.74666667 221.86666667 78.50666667 273.06666666 170.66666667-119.46666667 245.76-382.29333333 146.77333333-573.44 525.65333333 300.37333333 129.70666667 747.52 61.44 795.30666667 23.89333333-51.2 27.30666667-136.53333333-20.48-177.49333333-78.50666667 300.37333333-273.06666667 358.4-273.06666667 358.4 23.89333333-153.6-81.92-320.85333333-184.32-447.14666667-3.41333333 61.44-6.82666667 102.4-40.96 163.84-6.82666667-112.64-92.16-201.38666667-116.05333333-314.02666667C61.44 121.17333332999999 116.05333333 11.946666670000013 324.26666667-107.51999999999998L324.26666667-107.51999999999998z"  horiz-adv-x="1024" />

    
    <glyph glyph-name="2weixuanzhong" unicode="&#58891;" d="M693.696 604.8 384 295.104 266.304 412.8c-12.48 12.48-32.768 12.48-45.248 0s-12.48-32.768 0-45.248l140.288-140.288c6.272-6.272 14.464-9.408 22.656-9.408s16.384 3.136 22.656 9.344l332.288 332.288c12.48 12.48 12.48 32.768 0 45.248S706.176 617.28 693.696 604.8zM480 896C214.912 896 0 681.088 0 416s214.912-480 480-480 480 214.912 480 480S745.088 896 480 896zM480 0c-229.76 0-416 186.24-416 416S250.24 832 480 832s416-186.24 416-416S709.76 0 480 0z"  horiz-adv-x="1024" />

    
    <glyph glyph-name="hezuo" unicode="&#58939;" d="M1024 576c6.4 76.8-25.6 147.2-89.6 211.2-185.6 185.6-384 0-390.4 0L505.6 742.4 486.4 768C480 768 396.8 857.6 275.2 857.6c0 0 0 0 0 0C204.8 857.6 140.8 825.6 76.8 768 25.6 716.8 0 652.8 0 588.8c0-128 102.4-236.8 134.4-268.8L115.2 294.4C89.6 262.4 96 211.2 128 179.2c12.8-12.8 32-19.2 51.2-19.2 0 0 6.4 0 6.4 0 0-25.6 12.8-44.8 32-57.6 12.8-12.8 32-19.2 51.2-19.2 0 0 6.4 0 6.4 0 0 0 0-6.4 0-6.4 0-19.2 12.8-38.4 32-51.2 12.8-12.8 32-19.2 51.2-19.2 0 0 6.4 0 6.4 0 0 0 0 0 6.4 0 0-19.2 12.8-38.4 32-51.2 12.8-12.8 32-19.2 51.2-19.2 19.2 0 32 6.4 44.8 12.8L512-70.4c12.8-19.2 38.4-25.6 57.6-25.6 0 0 0 0 0 0 19.2 0 44.8 6.4 57.6 25.6 19.2 12.8 25.6 38.4 25.6 57.6 0 0 0 6.4 0 6.4 0 0 0 0 6.4 0 0 0 0 0 0 0 19.2 0 44.8 6.4 57.6 25.6 19.2 12.8 25.6 38.4 25.6 57.6 0 0 0 6.4 0 6.4 0 0 0 0 0 0 0 0 0 0 0 0 19.2 0 44.8 6.4 57.6 25.6 19.2 12.8 25.6 38.4 25.6 57.6 0 0 0 6.4 0 6.4 0 0 0 0 6.4 0 19.2 0 44.8 6.4 57.6 25.6 19.2 12.8 25.6 38.4 25.6 57.6 0 25.6-6.4 44.8-25.6 64l-12.8 12.8C947.2 377.6 1017.6 467.2 1024 576zM576 755.2c6.4 6.4 172.8 153.6 326.4 0C960 697.6 985.6 640 979.2 576c-6.4-89.6-64-166.4-108.8-211.2l-211.2 217.6-12.8-19.2C640 569.6 537.6 448 422.4 448c0 0 0 0 0 0C384 448 352 460.8 320 492.8L576 755.2zM160 217.6c-12.8 12.8-19.2 38.4-6.4 51.2L243.2 384C249.6 390.4 256 396.8 268.8 396.8c12.8 0 19.2 0 25.6-6.4s12.8-12.8 12.8-25.6c0-6.4 0-12.8-6.4-19.2-6.4 0-6.4-6.4-12.8-12.8l-96-115.2c0 0 0 0 0 0C185.6 204.8 166.4 204.8 160 217.6zM243.2 140.8c-12.8 12.8-19.2 32-6.4 44.8 0 0 6.4 6.4 6.4 6.4l96 115.2c0 0 0 0 0 6.4C339.2 313.6 345.6 320 352 320c12.8 0 19.2 0 25.6-6.4 6.4-6.4 12.8-12.8 12.8-25.6 0-6.4 0-19.2-6.4-25.6C384 262.4 384 256 377.6 256l-96-115.2c0 0 0 0 0 0-6.4-6.4-12.8-6.4-19.2-6.4C256 128 249.6 134.4 243.2 140.8zM352 51.2c-12.8 0-19.2 0-25.6 6.4C320 64 313.6 76.8 313.6 83.2c0 6.4 0 19.2 6.4 25.6 0 0 6.4 6.4 6.4 6.4l96 115.2c0 0 0 0 0 0 6.4 6.4 12.8 6.4 19.2 6.4 0 0 0 0 6.4 0 6.4 0 19.2 0 25.6-6.4 12.8-12.8 19.2-32 6.4-44.8 0 0 0 0 0 0l-96-115.2c0 0 0-6.4-6.4-6.4C364.8 57.6 358.4 51.2 352 51.2zM416-6.4c-6.4 6.4-12.8 12.8-12.8 25.6 0 6.4 0 12.8 6.4 19.2 0 0 0 0 0 0l96 115.2c0 0 0 6.4 6.4 6.4 6.4 6.4 12.8 12.8 25.6 12.8 6.4 0 12.8 0 25.6-6.4 6.4-6.4 12.8-12.8 12.8-25.6 0-12.8 0-19.2-6.4-25.6L467.2 0C454.4-19.2 435.2-19.2 416-6.4zM608-44.8c-6.4-6.4-19.2-12.8-32-12.8-12.8 0-19.2 6.4-32 12.8l-25.6 32 51.2 64 38.4-38.4c6.4-6.4 12.8-19.2 12.8-32C620.8-25.6 614.4-38.4 608-44.8zM876.8 230.4c-12.8-12.8-38.4-12.8-51.2-6.4 0 0 0 6.4-6.4 6.4L678.4 384c0 0-6.4 6.4-12.8 6.4-6.4 6.4-19.2 0-25.6-6.4-6.4-6.4-6.4-19.2 0-32l147.2-153.6c0 0 6.4-6.4 6.4-6.4 12.8-19.2 6.4-38.4-6.4-51.2-12.8-12.8-38.4-12.8-57.6 0 0 0 0 0 0 0L588.8 294.4c0 0-6.4 6.4-6.4 6.4-6.4 6.4-19.2 6.4-25.6 0-6.4-6.4-6.4-19.2 0-32l147.2-153.6c0 0 0 0 6.4-6.4 6.4-6.4 12.8-19.2 12.8-32 0-12.8-6.4-19.2-12.8-32-6.4-6.4-19.2-12.8-32-12.8-12.8 0-19.2 6.4-32 12.8l-38.4 38.4c12.8 12.8 12.8 32 12.8 51.2 0 19.2-12.8 38.4-32 51.2-19.2 12.8-38.4 19.2-64 19.2 0 19.2-12.8 38.4-32 51.2C473.6 281.6 454.4 288 435.2 281.6c0 0 0 6.4 0 6.4 0 19.2-12.8 38.4-32 51.2C390.4 358.4 371.2 364.8 352 364.8c0 0 0 6.4 0 6.4 0 19.2-12.8 38.4-32 51.2S288 441.6 262.4 441.6c-19.2 0-38.4-12.8-51.2-32L160 352C128 384 44.8 480 44.8 588.8c0 57.6 19.2 102.4 64 147.2 51.2 51.2 108.8 76.8 166.4 76.8 102.4 0 172.8-76.8 172.8-76.8l19.2-25.6L256 492.8l12.8-12.8c44.8-51.2 96-76.8 153.6-76.8 0 0 0 0 0 0 102.4 0 198.4 83.2 236.8 121.6L729.6 448c0 0 0-6.4 6.4-6.4l147.2-153.6C889.6 281.6 896 268.8 896 256 889.6 249.6 889.6 236.8 876.8 230.4z"  horiz-adv-x="1025" />

    
    <glyph glyph-name="shoucang" unicode="&#58975;" d="M1024 512c0 0-115.2-153.6-262.4-268.8 0 0 0 0 0 0s0 0 0 0c0 0 0 0 0 0C819.2 44.8 832-128 832-128l-320 192c0 0 0 0 0 0 0 0 0 0 0 0-153.6-108.8-320-192-320-192s12.8 172.8 70.4 371.2c0 0 0 0 0 0s0 0 0 0c0 0 0 0 0 0C115.2 352 0 512 0 512l352 32L512 896l160-352L1024 512z"  horiz-adv-x="1024" />

    
    <glyph glyph-name="jiaojuan" unicode="&#58905;" d="M807.872614 827.808922l0-98.624205-98.624205 0L709.24841 827.808922 314.75159 827.808922l0-98.624205-98.624205 0L216.127386 827.808922l-98.624205 0 0-887.617843 98.624205 0 0 98.624205 98.624205 0 0-98.624205 394.496819 0 0 98.624205 98.624205 0 0-98.624205 98.624205 0L906.496819 827.808922 807.872614 827.808922zM314.75159 137.439488l-98.624205 0 0 98.624205 98.624205 0L314.75159 137.439488zM314.75159 334.687898l-98.624205 0 0 98.624205 98.624205 0L314.75159 334.687898zM314.75159 531.936307l-98.624205 0 0 98.624205 98.624205 0L314.75159 531.936307zM807.872614 137.439488l-98.624205 0 0 98.624205 98.624205 0L807.872614 137.439488zM807.872614 334.687898l-98.624205 0 0 98.624205 98.624205 0L807.872614 334.687898zM807.872614 531.936307l-98.624205 0 0 98.624205 98.624205 0L807.872614 531.936307z"  horiz-adv-x="1024" />

    
    <glyph glyph-name="shangwuhezuohezuo" unicode="&#59028;" d="M339.797333 466.773333c-5.802667 27.989333-4.949333 49.152-25.429333 59.562667-43.52-31.232-88.064-17.578667-97.28-14.165333-6.144-11.434667-6.997333-26.965333-10.752-45.397333-18.090667-3.072-28.672-25.088 0.682667-45.226667 7.168-37.546667 31.914667-72.192 66.048-72.874667 33.962667 0.682667 58.88 35.328 66.048 72.874667C368.469333 441.685333 357.717333 463.701333 339.797333 466.773333zM203.264 468.138667c3.925333 19.285333 4.949333 35.498667 11.264 47.445333 9.728-3.584 54.954667-17.92 100.352 14.848 21.333333-10.922667 23.381333-32.768 27.648-62.122667 2.901333-0.512 5.802667-1.536 8.192-2.901333 1.877333 16.042667 8.192 88.064-27.818667 88.746667-7.68 10.24-27.477333 17.408-50.005333 17.408-91.648 0-81.066667-88.405333-77.994667-106.154667C197.461333 466.432 200.362667 467.626667 203.264 468.138667zM180.906667 282.453333l26.965333 19.968-22.357333 9.216 16.554667 28.501333c-25.088-11.605333-59.050667-28.330667-66.218667-37.717333-11.605333-15.36-30.037333-105.813333-30.037333-105.813333l159.573333 0L180.906667 282.453333zM192.682667 314.026667l25.088-10.410667-29.354667-21.674667 83.797333-85.333333-41.984 155.989333c0 0-8.533333-3.584-20.48-9.045333L192.682667 314.026667zM358.912 311.637333l-22.357333-9.216 26.965333-19.968-84.48-85.845333L438.613333 196.608c0 0-18.432 90.453333-30.037333 105.813333-7.168 9.386667-41.130667 26.112-66.218667 37.717333L358.912 311.637333zM326.656 303.616l25.258667 10.410667-17.237333 29.696c-11.946667 5.290667-20.48 9.045333-20.48 9.045333l-42.154667-155.989333 83.797333 85.333333L326.656 303.616zM255.829333 276.48 272.213333 215.552 288.768 276.48 283.306667 313.856 289.28 320 280.746667 336.213333 263.850667 336.213333 255.317333 320 261.290667 313.856ZM819.2 466.773333c-5.802667 27.989333-4.949333 49.152-25.429333 59.562667-43.52-31.232-88.064-17.578667-97.28-14.165333-6.144-11.434667-6.997333-26.965333-10.922667-45.397333-18.090667-3.072-28.672-25.088 0.682667-45.226667 7.168-37.546667 32.085333-72.192 66.048-72.874667 33.962667 0.682667 58.88 35.328 66.048 72.874667C847.872 441.685333 837.290667 463.701333 819.2 466.773333zM682.837333 468.138667c3.925333 19.285333 4.949333 35.498667 11.264 47.445333 9.728-3.584 54.954667-17.92 100.352 14.848 21.333333-10.922667 23.381333-32.768 27.648-62.122667 3.072-0.512 5.802667-1.536 8.192-2.901333 1.877333 16.042667 8.192 88.064-27.818667 88.746667-7.68 10.24-27.477333 17.408-50.005333 17.408-91.648 0-81.066667-88.405333-77.994667-106.154667C676.864 466.602667 679.765333 467.626667 682.837333 468.138667zM660.48 282.453333l26.965333 19.968-22.357333 9.216 16.554667 28.501333c-25.088-11.605333-59.050667-28.330667-66.218667-37.717333-11.605333-15.36-30.037333-105.813333-30.037333-105.813333l159.402667 0L660.48 282.453333zM672.085333 314.026667l25.258667-10.410667-29.354667-21.674667 83.797333-85.333333-41.984 155.989333c0 0-8.533333-3.584-20.48-9.045333L672.085333 314.026667zM838.485333 311.637333l-22.357333-9.216 26.965333-19.968-84.48-85.845333 159.402667 0c0 0-18.432 90.453333-30.037333 105.813333-7.168 9.386667-41.130667 26.112-66.218667 37.717333L838.485333 311.637333zM806.229333 303.616l25.258667 10.410667-17.237333 29.696c-11.946667 5.290667-20.48 9.045333-20.48 9.045333l-41.984-155.989333 83.797333 85.333333L806.229333 303.616zM735.232 276.48 751.786667 215.552 768.170667 276.48 762.709333 313.856 768.682667 320 760.149333 336.213333 743.253333 336.213333 734.72 320 740.693333 313.856ZM279.381333 16.896c96.256-37.546667 199.509333-43.690667 295.253333-25.258667 47.957333 9.216 94.378667 25.088 137.045333 47.274667 42.496 22.186667 81.408 50.858667 113.152 85.504-36.864-29.184-78.506667-50.517333-121.856-65.024-43.349333-14.506667-88.576-22.186667-133.461333-23.552-89.6-2.901333-178.858667 18.261333-251.733333 61.269333 10.410667 8.874667 20.48 18.090667 30.037333 27.477333-45.738667-9.728-96.426667-11.434667-148.992 0.512 15.189333-51.882667 44.373333-103.936 83.968-150.869333C281.258667-11.605333 280.064 2.730667 279.381333 16.896zM744.618667 751.104c-96.256 37.717333-199.509333 43.690667-295.253333 25.258667-47.957333-9.216-94.378667-25.088-137.045333-47.274667-42.496-22.186667-81.408-50.858667-113.152-85.504 36.864 29.184 78.506667 50.517333 121.856 65.024 43.349333 14.506667 88.576 22.186667 133.461333 23.552 89.6 2.901333 178.858667-18.261333 251.733333-61.269333-10.410667-8.874667-20.48-18.090667-30.037333-27.477333 45.738667 9.728 96.426667 11.434667 148.992-0.341333-15.189333 51.882667-44.373333 103.936-83.968 150.869333C742.741333 779.605333 743.936 765.269333 744.618667 751.104z"  horiz-adv-x="1024" />

    
    <glyph glyph-name="circle2yuanquan" unicode="&#59167;" d="M150.1184 745.8816C250.2656 845.9264 370.8928 896 512 896c141.1072 0 261.7344-50.0736 361.8816-150.1184C973.9264 645.7344 1024 525.1072 1024 384c0-141.1072-50.0736-261.7344-150.1184-361.8816C773.7344-77.9264 653.1072-128 512-128c-141.1072 0-261.7344 50.0736-361.8816 150.1184C50.0736 122.2656 0 242.8928 0 384 0 525.1072 50.0736 645.7344 150.1184 745.8816zM512 854.1184c-85.2992 0-164.1472-20.8896-236.3392-62.7712C203.4688 749.568 146.432 692.5312 104.6528 620.3392 62.7712 548.1472 41.8816 469.2992 41.8816 384c0-129.6384 45.9776-240.4352 137.8304-332.288C271.5648-40.2432 382.3616-86.1184 512-86.1184s240.4352 45.9776 332.288 137.8304C936.2432 143.5648 982.1184 254.3616 982.1184 384c0 129.6384-45.9776 240.4352-137.8304 332.288S641.6384 854.1184 512 854.1184z"  horiz-adv-x="1024" />

    
    <glyph glyph-name="ditu" unicode="&#58952;" d="M841.95441778 571.58542222c0 173.82172445-157.23064889 314.74346667-331.98421333 314.74346667-174.75470222 0-327.67089778-140.92060445-327.67089778-314.74346667 0-161.17532445 324.01066667-547.09816889 324.01066666-547.09816889S841.95441778 405.02385778 841.95441778 571.58542222L841.95441778 571.58542222 841.95441778 571.58542222zM405.53358222 560.45454222c0 59.46936889 49.27488 107.73504 109.96622223 107.73504 60.76529778 0 109.96508445-48.19057778 109.96508444-107.73504 0-59.54332445-49.27146667-107.74072889-109.96508444-107.74072889C454.80846222 452.78549333 405.53358222 500.98062222 405.53358222 560.45454222L405.53358222 560.45454222 405.53358222 560.45454222zM620.79544889 15.076693330000012c0.93866667-2.80576 1.44156445-5.74577778 1.44156444-8.61866666 0-29.73809778-49.27488-53.87377778-109.96963555-53.87377778-60.69020445 0-109.96508445 24.13568-109.96508445 53.87377778 0 2.94229333 0.50403555 5.81290667 1.43587556 8.61866666-66.58161778-12.35512889-111.40096-35.70005333-111.40096-62.49244444 0-39.71868445 98.47466667-71.82449778 219.93130666-71.82449778 121.46346667 0 219.93585778 32.10581333 219.93585778 71.82449778C732.13155555-20.623360000000048 687.31107555 2.72156444999996 620.79544889 15.076693330000012L620.79544889 15.076693330000012 620.79544889 15.076693330000012zM620.79544889 15.076693330000012"  horiz-adv-x="1024" />

    
    <glyph glyph-name="jiaoyu" unicode="&#58903;" d="M1318.13181 607.264508l-616.415492 219.428571c-5.98146 2.145524-12.483048 2.145524-18.399492 0L72.492698 609.995175C62.415238 606.419302 55.523556 597.317079 55.003429 586.979556 54.548317 576.642032 60.399746 566.954667 70.087111 562.403556L193.097143 504.864508C156.493206 460.783746 151.356952 382.309587 150.966857 347.851175c-28.151873-18.919619-35.693714-40.374857-36.668952-55.913651-2.145524-32.117841 21.455238-58.839365 37.384127-73.077841-24.706032-123.270095-107.341206-200.443937-108.121397-201.289143-5.916444-5.461333-8.97219-13.263238-8.192-21.195175 0.715175-7.866921 5.20127-15.018667 12.092952-19.309714l87.641397-54.873397c4.356063-2.730667 9.362286-4.161016 14.433524-4.161016 3.055746 0 6.176508 0.520127 9.102222 1.560381 133.087492 46.876444 111.567238 261.558857 103.830349 315.652063 17.48927 22.105397 24.836063 44.405841 21.715302 66.381206C281.323683 321.974857 270.140952 336.603429 261.03873 345.380571 232.171683 541.403429 398.612317 439.198476 379.172571 446.285206l303.949206-110.331937c6.046476-2.145524 12.678095-2.145524 18.659556 0l616.415492 222.744381c10.467556 3.770921 17.424254 13.458286 17.359238 24.315937S1328.599365 603.493587 1318.13181 607.264508zM219.753651 311.702349c0.130032-0.065016 10.337524-6.956698 11.637841-17.424254 1.430349-11.702857-8.387048-25.031111-16.904127-34.133333-5.461333-5.916444-7.866921-13.913397-6.501587-21.780317 10.987683-61.635048 20.740063-223.459556-56.173714-265.199746l-48.956952 30.622476c31.727746 36.798984 87.186286 114.297905 104.155429 221.314032 1.495365 9.622349-2.730667 19.309714-10.922667 25.031111-10.07746 6.891683-29.387175 25.876317-28.541968 38.359365C168.131048 297.723937 182.044444 306.241016 190.366476 310.532063 199.338667 315.14819 204.8 324.380444 204.474921 334.262857 202.459429 389.461333 215.917714 474.567111 250.896254 483.539302 227.425524 453.436952 206.230349 405.910349 207.660698 332.897524 207.855746 324.510476 212.601905 316.448508 219.753651 311.702349zM692.484063 387.770921 149.991619 582.428444l542.427429 192.446984 539.56673-192.056889L692.484063 387.770921zM1082.644317 445.635048l-376.116825-123.400127L324.819302 445.700063c-8.061968 2.600635-17.099175 1.365333-24.055873-3.575873C293.80673 437.248 289.645714 429.446095 289.645714 421.189079l0-82.310095c0-8.842159 4.681143-17.16419 12.418032-21.845333 15.148698-9.29727 23.79581-20.154921 26.396444-33.223111 4.681143-23.210667-10.532571-50.25727-16.774095-58.579302-7.736889-10.272508-6.631619-24.510984 2.665651-33.54819 96.288508-93.687873 260.128508-113.387683 380.732952-113.387683 85.430857 0 148.756317 9.687365 152.527238 10.272508 239.908571 47.656635 266.695111 121.189587 269.685841 135.493079 0.325079 1.625397 0.520127 3.380825 0.520127 5.071238L1117.817905 421.124063c0 8.322032-4.096 16.188952-11.117714 21.000127C1099.678476 447.000381 1090.771302 448.300698 1082.644317 445.635048zM1064.504889 234.268444 1064.504889 234.268444c-6.176508-10.142476-44.210794-58.514286-226.38527-94.728127-1.430349-0.195048-319.227937-48.436825-470.909968 75.353397 9.492317 18.529524 19.829841 47.461587 13.783365 78.344127C376.571937 316.123429 363.503746 336.213333 343.088762 352.142222L343.088762 385.235302l355.116698-114.818032c5.461333-1.820444 11.442794-1.820444 16.969143 0l349.330286 114.622984L1064.504889 234.268444z"  horiz-adv-x="1377" />

    
    <glyph glyph-name="liulanjilu" unicode="&#59027;" d="M366.063984 712.35085227c0-81.65928853-66.16179413-147.8167168-147.82108267-147.8167168-81.6189024 0-147.78069653 66.15742827-147.78069653 147.8167168 0 81.61344427 66.16179413 147.77087253 147.78069653 147.77087253C299.9010976 860.1217248 366.063984 793.96429653 366.063984 712.35085227L366.063984 712.35085227zM565.58413333 786.2133664c0-40.82527787-33.08308053-73.9083584-73.91272426-73.9083584s-73.9083584 33.0787136-73.9083584 73.9083584c0 40.8296448 33.0787136 73.9083584 73.9083584 73.9083584S565.58413333 827.0430112 565.58413333 786.2133664L565.58413333 786.2133664zM779.86717973 767.76984107c0-40.8296448-33.0787136-73.9083584-73.91272426-73.9083584-40.8296448 0-73.9083584 33.0787136-73.9083584 73.9083584s33.0787136 73.9083584 73.9083584 73.9083584C746.78846613 841.67819947 779.86717973 808.59948587 779.86717973 767.76984107L779.86717973 767.76984107zM953.53779627 671.69257707c0-40.8296448-33.0787136-73.9083584-73.91272427-73.9083584-40.8296448 0-73.9083584 33.0787136-73.9083584 73.9083584s33.0787136 73.9083584 73.9083584 73.9083584S953.53779627 712.5222218700001 953.53779627 671.69257707L953.53779627 671.69257707zM300.4239392 481.4034688c0 0 47.10373973 130.23986347 227.22746133 152.40658667 0 0 278.06531307 19.3986112 325.9516768-254.75794454 23.38377493-133.96306133 13.63971627-424.13340373-201.25131093-468.29547946-51.87261867-10.652208-202.29153493 2.59674133-182.8929248 138.37173653 6.8427808 48.0184384 51.87261867 126.16628693 0 193.97192C433.43300587 290.20621013000004 253.3147424 304.05986559999997 300.4239392 481.4034688"  horiz-adv-x="1024" />

    
    <glyph glyph-name="fenlei1" unicode="&#58992;" d="M401.269241 879.554758 67.941212 879.554758c-37.31468 0-67.565145-30.103462-67.565145-67.229857l0-335.252161c0-37.132436 30.249458-67.229857 67.565145-67.229857L401.269241 409.842883c37.31468 0 67.574207 30.097421 67.574207 67.229857L468.843448 812.324901C468.843448 849.451296 438.583921 879.554758 401.269241 879.554758zM940.623439 879.554758 607.305479 879.554758c-37.31468 0-67.571187-30.103462-67.571187-67.229857l0-335.252161c0-37.132436 30.256507-67.229857 67.571187-67.229857l333.31796 0c37.324749 0 67.574207 30.097421 67.574207 67.229857L1008.197646 812.324901C1008.197646 849.451296 977.948187 879.554758 940.623439 879.554758zM401.269241 341.711875 67.941212 341.711875c-37.31468 0-67.565145-30.106483-67.565145-67.236905l0-335.249141c0-37.129416 30.249458-67.226836 67.565145-67.226836L401.269241-128.001007c37.31468 0 67.574207 30.097421 67.574207 67.226836L468.843448 274.475977C468.843448 311.605393 438.583921 341.711875 401.269241 341.711875zM940.623439 341.711875 607.305479 341.711875c-37.31468 0-67.571187-30.106483-67.571187-67.236905l0-335.249141c0-37.129416 30.256507-67.226836 67.571187-67.226836l333.31796 0c37.324749 0 67.574207 30.097421 67.574207 67.226836L1008.197646 274.475977C1008.197646 311.605393 977.948187 341.711875 940.623439 341.711875z"  horiz-adv-x="1024" />

    
    <glyph glyph-name="tuijian1" unicode="&#59008;" d="M512 896.001386c-282.770191 0-512.001386-229.231196-512.001386-512.001386S229.229809-128.001386 512-128.001386 1024.001386 101.229809 1024.001386 384 794.770191 896.001386 512 896.001386zM757.737262 320.443674 533.240901 103.265165c-6.097747-6.097747-14.530329-9.537608-23.402426-9.537608-8.876256 0-17.195147 3.438475-23.516118 9.6513L262.043674 320.443674C230.544194 351.613172 213.240901 392.983016 213.240901 437.129983c0 44.145581 17.303293 85.518198 48.694627 116.686308 31.276256 30.833969 72.762565 47.915425 116.908146 47.915425C420.324437 601.731716 460.148354 586.426343 490.980936 558.696707l18.857539-16.967764L528.805546 558.696707c30.724437 27.729636 70.542808 43.035009 112.029116 43.035009 44.145581 0 85.626343-16.967764 116.9026-47.915425 31.505026-31.168111 48.808319-72.654419 48.694627-116.686308C806.431889 392.983016 789.128596 351.49948 757.737262 320.443674zM376.959445 530.858925C362.42773 532.521317 333.143847 527.197227 311.511958 505.566724c-17.411438-17.412825-28.059619-42.591334-28.389601-67.439861-0.221837-7.094627 5.545927-12.976083 12.640555-13.084229l0.221837 0c6.986482 0 12.754246 5.654073 12.97747 12.754246C309.184055 456.097054 317.057886 474.619064 329.819064 487.374697c15.413518 15.419064 36.708492 18.743847 44.144194 17.860659 6.986482-0.779203 13.529289 4.213518 14.309879 11.315078C389.046794 523.645061 384.054073 530.078336 376.959445 530.858925z"  horiz-adv-x="1024" />

    
    <glyph glyph-name="fanhui" unicode="&#58947;" d="M539.648 705.536l-46.08 46.08L129.024 388.096l0 0 0 0 363.52-363.52 46.08 46.08-317.44 317.44L539.648 705.536zM323.584 419.84l0-64.512 582.656 0 0 64.512L323.584 419.84z"  horiz-adv-x="1024" />

    
    <glyph glyph-name="ai50" unicode="&#59048;" d="M425.169911 592.529337c0 77.302597-63.257719 140.55213-140.507104 140.55213-77.30362 0-140.55213-63.249533-140.55213-140.55213s63.24851-140.559293 140.55213-140.559293c21.097504 0 38.651298 3.526313 56.205093 14.075577l84.302011-84.324524-84.302011-84.328617c-17.553795 10.549264-35.107589 14.075577-56.205093 14.075577-77.30362 0-140.55213-63.253626-140.55213-140.5552s63.24851-140.55213 140.55213-140.55213c77.248362 0 140.507104 63.249533 140.507104 140.55213 0 21.076014-3.454682 38.627762-14.000875 56.227606l84.302011 84.328617 245.907643-245.955738 140.558269 0-470.767923 470.790436C421.715229 553.900551 425.169911 571.453323 425.169911 592.529337M284.662807 522.272203c-38.651298 0-70.303182 31.628348-70.303182 70.257134 0 38.619576 31.652907 70.247924 70.303182 70.247924s70.248947-31.628348 70.248947-70.247924C354.911754 553.900551 323.314105 522.272203 284.662807 522.272203M284.662807 100.662887c-38.651298 0-70.303182 31.624255-70.303182 70.248947 0 38.627762 31.652907 70.25304 70.303182 70.25304s70.248947-31.625278 70.248947-70.25304C354.911754 132.287141 323.314105 100.662887 284.662807 100.662887M495.471047 399.268752c10.553357 0 17.545608-6.999414 17.545608-17.548678 0-10.552334-6.992251-17.552771-17.545608-17.552771s-17.605983 7.000438-17.605983 17.552771C477.865063 392.269337 484.916667 399.268752 495.471047 399.268752M881.936959 697.928852l-140.558269 0-210.809263-210.809263 70.302159-70.247924L881.936959 697.928852z"  horiz-adv-x="1024" />

    
    <glyph glyph-name="dianzan1" unicode="&#58937;" d="M232.26322489 513.5501084499999v0c0 0 38.80095289 1.25246578 38.80095289-38.80095289v-541.95116563c0 0 0-22.52860682-27.53482903-22.52860682h-132.67035023c0 0-32.54226489 0-32.54226489 32.5422649l-31.28979911 539.4474477c0 0 0 31.28979911 32.54105126 31.28979911h152.69645274zM911.89217659 513.5501084499999v0c0 0 65.08452978 6.25747437 65.08452978-61.32834607 0 0 0-123.91037155-95.12307674-446.82687527 0 0-30.03854697-95.12307675-66.33578193-95.12307673h-382.99481125c-27.53482903 0-95.12307675 18.77485037-95.12307675 68.83949985v534.44001185c0 0 188.9936877 112.64546133 188.99368771 291.6267046 6.25747437 8.7611923-8.7611923 65.08331615 62.58081184 65.08331614 0 0 166.46508089 10.01123082 67.58703408-356.71123437h255.32946964zM583.96823703 822.69798401c17.52238459-5.00622222 32.54226489-23.78228622 38.80095289-37.54848711 37.54848711-76.34822637 8.7611923-182.73742697-11.26491022-259.08443971l-7.50994015-26.28357688c-7.50872652-28.78729482 0-32.54226489 31.28979912-32.5422649h252.82696533c32.54226489 0 41.30345718-11.26491022 38.80095289-46.31089303-2.50371792-22.52860682-6.25747437-35.04719645-10.01123081-53.82083319-20.02610252-107.63923911-50.06464948-244.06577303-81.3544486-347.95004208-18.77485037-60.07830755-43.80717511-61.3295597-98.87683318-61.3295597h-294.13042252c-46.31089303 0-58.82584178 32.54105125-58.82584178 68.83949985v464.34925985c107.63923911 53.82083318 187.74243555 191.49740563 190.24615348 306.6465849 1.25246578 6.25747437 1.25246578 11.26491022 2.50371793 18.77485037 0 1.25246578 0 3.75497008 0 5.00622222 2.50371792 1.25246578 5.00622222 1.25246578 7.50994014 1.25246578zM95.83790459 465.98796326h127.66534163v-508.15643495h-98.87683319l-28.78729481 508.15643495z"  horiz-adv-x="1024" />

    
    <glyph glyph-name="wodedaifukuan" unicode="&#58986;" d="M921.8048 768 102.1952 768c-44.4416 0-80.896-35.84-80.896-79.6672l0-608.768c0-43.8272 36.352-79.6672 80.896-79.6672l819.712 0c44.4416 0 80.7936 35.84 80.7936 79.6672L1002.7008 688.3328C1002.7008 732.16 966.3488 768 921.8048 768zM960 79.6672c0-20.3776-17.1008-36.9664-38.1952-36.9664L102.1952 42.7008c-21.0944 0-38.1952 16.5888-38.1952 36.9664L64 688.3328c0 20.3776 17.1008 36.9664 38.1952 36.9664l819.712 0c20.992 0 38.1952-16.5888 38.1952-36.9664L960.1024 79.6672zM874.7008 597.2992c0 11.776-9.6256 21.2992-21.2992 21.2992L170.7008 618.5984c-11.776 0-21.2992-9.6256-21.2992-21.2992 0-11.776 9.6256-21.2992 21.2992-21.2992l682.7008 0C865.0752 576 874.7008 585.6256 874.7008 597.2992zM832 490.7008l-128 0c-23.4496 0-42.7008-19.2512-42.7008-42.7008l0-85.2992c0-23.4496 19.2512-42.7008 42.7008-42.7008l128 0c23.4496 0 42.7008 19.1488 42.7008 42.7008l0 85.2992C874.7008 471.4496 855.4496 490.7008 832 490.7008zM832 362.7008l-128 0 0 85.2992 128 0L832 362.7008z"  horiz-adv-x="1024" />

    
    <glyph glyph-name="book1" unicode="&#60273;" d="M727.419258-66.263937l-530.825764 1.689479c-10.028401 0-20.507056-0.429789-30.638811-0.844228-26.585495-1.090844-54.075593-2.216481-77.738525 4.300956-28.967752 7.978718-48.073902 25.960255-58.408271 54.973032-10.532891 29.861098-11.137665 59.733453-1.790786 86.574774 0.449231 4.28356 1.029446 8.544607 1.592264 12.684904 1.030469 7.569396 2.095731 15.397688 2.456958 23.895223l0.008186 0.181125c0.132006 2.434445-0.668219 5.310959-1.596358 8.642844-1.382487 4.965082-3.103688 11.144828-2.001587 18.098193l0.026606 0.165776c2.238994 13.186324 9.736758 23.032576 16.987906 32.55444 3.499707 4.595668 7.119141 9.347902 10.216689 14.557554 18.36016 30.718629 38.186717 79.034031 44.215014 107.732653l0.171915 0.729617c0.789992 3.022847 0.184195 7.91425-0.401136 12.643971-0.873903 7.055696-1.863441 15.043624 0.453325 23.203468 2.698458 10.105149 9.006118 17.683754 14.57495 24.375154 3.016707 3.624551 5.864568 7.04751 7.636934 10.279111l0.2415 0.424672c15.435551 26.14138 36.32737 79.016635 39.153742 105.539708 0.354064 3.781116-0.353041 8.487302-1.101077 13.468756-1.248434 8.305153-2.659573 17.700127 0.566912 26.790156 3.941775 12.471033 12.245905 20.081361 19.581987 26.804483 3.618411 3.315512 7.037277 6.448876 9.685593 9.946536 12.70537 17.576307 36.632315 73.215512 40.082904 103.84409l0.014326 0.119727c0.284479 2.360767-0.506537 5.980201-1.344624 9.81146-1.3743 6.282077-3.083222 14.099113-1.593288 22.824845l0.097214 0.512676c2.362814 11.468193 10.382465 20.789489 18.871813 30.658254 3.698229 4.298909 7.521301 8.742105 10.559497 13.093203 5.65172 8.369621 10.503215 20.162202 15.639189 32.643468 8.187473 19.902282 17.46886 42.460044 33.345456 58.071603 19.370163 19.045775 44.927235 24.326035 75.964112 15.69547 8.632611 2.110057 17.569144 4.073782 27.183106 4.073782l467.61 0c33.363875 0 64.214511-15.254425 82.527598-40.806381 18.421558-25.561166 23.260773-59.550281 13.254885-93.221148l-5.103228-16.875343 11.501962-4.51278c14.442944-5.66707 17.704221-13.992689 19.627013-21.351284 0.652869-2.495844 1.045819-4.003174 2.990101-6.589069l0.350994-0.48607c18.164708-26.234501 22.947641-59.881832 13.129019-92.339058L864.419492 37.54536c-8.356318-28.324092-27.021423-54.562686-52.557006-73.882708C786.355555-55.635879 756.366543-66.263937 727.419258-66.263937zM196.642612-33.875273l530.825764-1.689479c45.928029 0 94.15338 36.658921 107.488083 81.733513l150.784168 530.799158 0.039909 0.13303c5.611811 18.4717 4.789073 37.319977-2.065032 53.537334l-182.938496-601.796142c-9.276271-30.157857-42.527582-45.910633-70.585615-45.910633L161.89625-17.068492l-1.062192 0.149403c-4.834098 0.679475-11.292184 0.405229-17.537422 0.13917-9.072633-0.38374-18.452257-0.782829-26.969235 1.281179-12.633738 3.064802-21.083178 11.273764-23.879873 23.165606-5.313006 17.025769-1.206478 26.38595 3.538593 33.3035 0.159636 0.233314 0.316202 0.455371 0.457418 0.676405 4.739954 7.450692 14.892175 16.335037 36.328393 16.335037l533.991874 0c67.681472 0 79.817883 11.741415 108.22384 104.69548l168.30931 556.61001c7.360641 24.772196 4.250814 48.41057-8.777921 66.48932-12.585643 17.559934-34.108842 28.02324-57.598836 28.02324l-467.61 0c-6.987135 0-14.669094-1.90028-22.802332-3.913123-1.659803-0.410346-3.320629-0.821715-4.983501-1.218758l-26.904767-6.433526 3.815909 11.401678c-30.479175 1.968841-42.142819-21.989827-57.228399-58.658981-5.770424-14.024411-11.219529-27.27111-18.668175-38.262442l-0.109494-0.159636c-3.944845-5.66707-8.314363-10.744715-12.538571-15.655562-4.941546-5.742794-11.06501-12.861936-12.023848-16.603143-0.384763-2.805906 0.428765-6.526647 1.366114-10.8143 1.279133-5.852288 2.729158-12.481266 1.841951-19.96982-3.931542-34.762735-28.895097-95.219665-45.830815-118.521371l-0.148379-0.200568c-4.362354-5.801123-9.243525-10.273994-13.549597-14.219863-5.985318-5.485945-9.723455-9.075703-11.094686-13.560854l-0.296759-0.874927c-0.669242-1.794879 0.25071-7.915273 0.858554-11.965519 0.950651-6.324032 2.02717-13.492292 1.292436-21.061688l-0.013303-0.127913c-3.285836-31.113625-25.454742-87.759763-43.137473-117.789707-3.179412-5.733585-7.242961-10.615779-10.833743-14.931061-3.900843-4.686742-7.584746-9.113565-8.524141-12.7023l-0.109494-0.398066c-0.62831-2.162246-0.041956-6.892991 0.474814-11.066033 0.840134-6.785543 1.882883-15.204283-0.26299-23.786753-6.7968-32.027437-27.757181-83.248006-47.820122-116.814496-3.978614-6.690376-8.325619-12.399401-12.160971-17.436114-5.581112-7.327896-10.009981-13.144368-11.088546-18.782785 0.047072-0.969071 0.725524-3.403516 1.225921-5.200442 1.295506-4.653997 3.068895-11.019984 2.681062-18.455327-0.425695-9.884115-1.636267-18.782785-2.705622-26.637684-0.635473-4.669346-1.235131-9.078773-1.644453-13.395078l-0.188288-1.981121-0.686638-1.867534c-7.553023-20.536732-7.127328-43.919279 1.233084-67.61905 14.434757-40.519856 49.668213-41.165562 105.95517-38.858006C175.139879-34.317341 185.936783-33.875273 196.642612-33.875273zM122.332163 14.68777c3.225461-1.49505 13.84431-1.043772 19.660782-0.796132 7.241938 0.309038 14.719236 0.627287 21.972431-0.25992l566.226019 0c16.249079 0 36.632315 9.247618 41.227983 24.188912l184.379311 606.53098c1.916653 6.123464 2.565429 12.670577 2.651386 18.989493L804.358581 153.746896c-15.196097-49.724495-27.176966-80.335676-46.976918-99.79282-22.530133-22.137183-52.519144-26.672476-90.61888-26.672476l-533.991874 0c-7.466042 0-10.161431-1.696642-10.428513-2.116197-0.324388-0.51063-0.675382-1.026376-1.041726-1.560542-0.220011-0.320295-0.506537-0.738827-0.655939-0.983397-0.032746-0.476861-0.033769-2.292206 1.238201-6.223748l0.252757-0.778736 0.167822-0.801249C122.313743 14.770657 122.322953 14.727679 122.332163 14.68777zM749.641375 412.424376 298.996768 412.424376c-11.272741 0-21.158902 4.733814-27.123754 12.988826-6.100952 8.444323-7.477298 19.716041-3.776 30.92943l0 0 15.562441 47.335075c6.473435 19.579941 26.117844 34.32783 45.703925 34.32783L780.00901 538.005536c11.344373 0 21.275559-4.77577 27.246551-13.103436 6.070252-8.464789 7.393387-19.713994 3.634784-30.871101l-15.541975-47.276746C788.875958 427.173289 769.229502 412.424376 749.641375 412.424376zM296.776194 443.462277c0.282433-0.121773 0.962931-0.338714 2.221598-0.338714l450.644607 0c5.629207 0 14.084787 5.78475 16.549931 13.242606l15.598256 47.443545c0.557702 1.64343 0.559748 2.704598 0.490164 3.142573-0.285502 0.12689-0.979304 0.355087-2.27174 0.355087L329.36338 507.307374c-5.628184 0-14.08274-5.783727-16.547885-13.240559l-15.562441-47.337121C296.684096 445.011562 296.697399 443.910485 296.776194 443.462277zM791.843546 571.216939 355.231537 571.216939c-11.04966 0-20.75879 4.6673-26.637684 12.803607-6.012947 8.321526-7.375991 19.399839-3.739161 30.394241l15.063067 45.822628c6.336312 19.158339 25.562189 33.584909 44.728714 33.584909L821.258483 693.822324c11.048637 0 20.756743-4.666276 26.63666-12.802584 6.013971-8.321526 7.379061-19.399839 3.744277-30.393217l-15.111163-45.954635C830.070172 585.599508 810.859645 571.216939 791.843546 571.216939zM353.544105 602.118739c0.320295-0.097214 0.87595-0.202615 1.687432-0.202615l436.610986 0c5.230118 0 13.163811 5.476735 15.59007 12.546757l15.050788 45.774533c0.458441 1.388627 0.491187 2.25639 0.462534 2.682086-0.320295 0.097214-0.87595 0.203638-1.688455 0.203638L384.646474 663.123139c-5.180999 0-13.283538-5.575995-15.573697-12.498662l-15.072277-45.848211C353.547175 603.406059 353.514429 602.544435 353.544105 602.118739z"  horiz-adv-x="1024" />

    
    <glyph glyph-name="shangpin" unicode="&#59017;" d="M95.28468969 569.3928168699999L32.27260719-42.913655619999986C29.30273094-71.77296000000001 51.39382062-96 80.32590313-96L943.68684125-96C972.6224-96 994.69064844-71.58612374999996 991.73997219-42.913655619999986L928.72788969 569.3928168699999C926.03211031 595.5890812499999 903.59409687 615.72413812 877.31095156 615.72413812L712.91293812 615.72413812 712.91293812 665.2192387499999C712.91293812 775.08703406 623.73721344 864 513.62355875 864 403.53820719 864 314.33434438 775.00199156 314.33434438 665.2192387499999L314.44573812 615.72413812 146.70162781 615.72413812C120.52474438 615.72413812 97.96226187 595.41067031 95.28468969 569.3928168699999ZM380.76402781 549.51724125L380.76402781 665.2192387499999C380.76402781 738.45249094 440.24198656 797.79310312 513.62355875 797.79310312 587.04303406 797.79310312 646.48308969 738.5280665600001 646.48308969 665.2192387499999L646.48308969 549.51724125 877.31095156 549.51724125C869.56656594 549.51724125 863.42819281 555.02557219 862.6448 562.6377928100001L925.6568825-49.668678750000026C924.59393094-39.33970781000005 933.22317219-29.793103119999955 943.68684125-29.793103119999955L80.32590313-29.793103119999955C90.65931031-29.793103119999955 99.41318656-39.39341811999998 98.35586188-49.668678750000026L161.36777937 562.6377928100001C160.57097937 554.89377094 154.5991175 549.51724125 146.70162781 549.51724125L380.76402781 549.51724125ZM646.48308969 549.51724125L646.48308969 400.71179625C646.48308969 382.42925813 661.35398656 367.60834781000005 679.69809688 367.60834781000005 698.04204125 367.60834781000005 712.91293812 382.42925813 712.91293812 400.71179625L712.91293812 615.72413812 380.65263406 615.72413812 380.65263406 549.51724125 646.48308969 549.51724125ZM380.76402781 549.51724125L314.33434438 549.51724125 314.33434438 400.71179625C314.33434438 382.42925813 329.20507625 367.60834781000005 347.54918656 367.60834781000005 365.89329688 367.60834781000005 380.76402781 382.42925813 380.76402781 400.71179625L380.76402781 549.51724125Z"  horiz-adv-x="1025" />

    
    <glyph glyph-name="jia" unicode="&#58912;" d="M553.42522469 881.1026963L470.57477531 881.1026963 470.57477531 425.42522469 14.8973037 425.42522469 14.8973037 342.57477530999995 470.57477531 342.57477530999995 470.57477531-113.10269630000005 553.42522469-113.10269630000005 553.42522469 342.57477530999995 1009.01984585 342.57477530999995 1009.01984585 425.42522469 553.42522469 425.42522469Z"  horiz-adv-x="1024" />

    
    <glyph glyph-name="shezhi" unicode="&#58885;" d="M895.4628 348.351851c1.128285 11.689852 1.82368 23.430881 1.82368 35.335673 0 11.905997-0.695394 23.652444-1.82368 35.33748l89.604742 70.838723c19.413849 15.874261 24.400821 43.223434 11.958979 64.830635l-95.555031 167.201134c-12.119733 21.233916-38.072698 31.425208-62.635476 21.985303l-104.994935-42.686987c-19.250085 13.839254-39.415321 25.687451-60.166977 35.394075l-15.924835 113.469115c-3.75513 24.55736-25.308145 43.05967-50.085864 43.05967H416.49735c-25.099828 0-46.17299-18.073032-50.143663-43.432956l-15.867638-113.095829c-20.80825-9.7578-40.96867-21.611416-60.221765-35.394075l-105.259847 42.851353c-22.686116 8.79087-50.144265-0.915753-62.259181-22.149067L27.186613 554.750957c-12.442444-21.770965-7.450053-49.120138 12.27868-65.153346L128.699157 419.025004c-1.129489-11.63386-1.825486-23.431483-1.825485-35.33748 0-11.904792 0.695997-23.698201 1.825485-35.335673L38.984237 277.511321c-19.247677-15.924835-24.240067-43.217413-11.797624-64.77404l95.609819-167.308303c12.170909-21.182138 38.718722-31.37042 62.580688-21.878736l104.993731 42.686987c19.304874-13.838049 39.470712-25.688053 60.165773-35.342899l15.925437-113.628062c3.918894-24.935462 24.991455-43.001871 50.035289-43.001871h191.115479c24.771698 0 46.274741 18.496891 50.192431 43.432955l15.868842 113.145802c20.751655 9.757198 40.916892 21.556025 60.166977 35.394075l105.26647-42.901325c5.896102-2.306542 12.06374-3.431817 18.393937-3.431817 18.015233 0 34.851607 9.757198 43.970004 25.580282l95.395481 167.087944c12.49362 21.556627 7.664391 48.9058-12.228708 65.367082l-89.175463 70.412456z m-36.463958-275.19921l-118.99133 48.424142c-8.897437 3.697933-18.983367 2.251152-26.542395-3.646155-23.488078-18.231979-48.581885-32.980363-74.642019-43.812262-8.74451-3.646155-14.907933-11.690454-16.254772-21.075571l-17.528155-125.208337-185.598081-2.738229-17.907462 127.946566c-1.288437 9.385116-7.50725 17.372219-16.24875 21.075571-25.845194 10.724127-50.996198 25.523687-74.642622 43.812262-4.772634 3.646155-10.566986 5.575197-16.410708 5.575197a26.518312 26.518312 0 0 1-10.081112-1.985637l-114.807524-49.494026-96.576749 163.770521 100.918298 79.680769c7.401285 5.845528 11.155211 15.178264 9.973342 24.506184-1.927838 14.376905-3.160884 28.904328-3.160884 43.703888 0 14.801366 1.233046 29.334208 3.109708 43.597321 1.233046 9.384514-2.52088 18.660655-9.973342 24.50498L73.734093 528.097178l91.427217 166.125831 118.884161-48.367547a26.742885 26.742885 0 0 1 26.541793 3.595581c23.544673 18.231377 48.746853 33.030335 74.806385 43.969403 8.7415 3.646155 14.852543 11.635666 16.196972 21.019578l14.906729 125.050594 188.221314 2.736422 17.907462-127.895991c1.290243-9.382708 7.508454-17.371617 16.248148-21.017772 25.953567-10.831898 51.103367-25.57968 74.698614-43.862234 7.615021-5.84613 17.696134-7.241736 26.542395-3.646757l114.808126 49.441044 96.633343-163.661546-100.973689-79.794561c-7.401887-5.844324-11.211806-15.120465-10.030539-24.448385 1.827894-14.371486 3.166303-28.903124 3.166303-43.70449 0-14.79956-1.289039-29.333606-3.166303-43.705093-1.181268-9.332736 2.628651-18.608877 10.030539-24.454405l99.8442-76.198378-91.428421-166.125831z m0 0M512.159549 585.854056c-110.568929 0-200.498187-90.68185-200.498187-202.166532 0-111.426883 89.928657-202.159909 200.498187-202.159909 110.573143 0 200.447011 90.677034 200.447011 202.159909 0 111.484682-89.929861 202.166532-200.447011 202.166532z m0-350.701592c-80.969206 0-146.872736 66.599526-146.872735 148.53506 0 81.942156 65.90353 148.54108 146.872735 148.54108 80.973421 0 146.821559-66.655519 146.82156-148.54108 0.000602-81.879541-65.90353-148.53506-146.82156-148.53506z m0 0"  horiz-adv-x="1024" />

    
    <glyph glyph-name="jian" unicode="&#58913;" d="M966.31366729 328.08647787999996H57.6879038c-27.76587363 0-50.27488011 22.50900646-50.2748801 50.27488008s22.50900646 50.27488011 50.2748801 50.27488013h908.62576349c27.76587363 0 50.27488011-22.50900646 50.2748801-50.27488013s-22.50900646-50.27488011-50.2748801-50.27488008z"  horiz-adv-x="1024" />

    
    <glyph glyph-name="erji" unicode="&#58943;" d="M866.191434 381.153348h-51.124137c-1.907401 172.229676-137.780851 311.737303-304.606223 311.737303s-302.698822-139.507627-304.606223-311.737303h-49.758612c-69.006026 0-125.151542-56.145516-125.151541-125.151542v-55.697566c0-68.998801 56.152741-125.151542 125.151541-125.151541h88.19564a39.773654 39.773654 0 0 1 39.289579 33.755225 39.824229 39.824229 0 0 1 1.748451 11.668383v256.921188c0 130.04287 100.998349 235.831398 225.131165 235.831398 124.140041 0 225.131165-105.795752 225.131165-235.831398v-256.921188c0-7.11663 1.892951-13.75641 5.151429-19.529189a39.759204 39.759204 0 0 1 37.237677-25.894419h88.210089c68.991576 0 125.137092 56.145516 125.137092 125.151541v55.697566c0.007225 69.006026-56.145516 125.151542-125.137092 125.151542z"  horiz-adv-x="1024" />

    
    <glyph glyph-name="icon_align-all" unicode="&#58915;" d="M448 416H64a32 32 0 0 0-32 32V832a32 32 0 0 0 32 32h384a32 32 0 0 0 32-32v-384a32 32 0 0 0-32-32zM96 480h320V800H96v-320zM960 416H576a32 32 0 0 0-32 32V832a32 32 0 0 0 32 32h384a32 32 0 0 0 32-32v-384a32 32 0 0 0-32-32z m-352 64h320V800H608v-320zM448-96H64a32 32 0 0 0-32 32V320a32 32 0 0 0 32 32h384a32 32 0 0 0 32-32v-384a32 32 0 0 0-32-32zM96-32h320V288H96v-320zM960-96H576a32 32 0 0 0-32 32V320a32 32 0 0 0 32 32h384a32 32 0 0 0 32-32v-384a32 32 0 0 0-32-32z m-352 64h320V288H608v-320z"  horiz-adv-x="1024" />

    
    <glyph glyph-name="icon-xiugai" unicode="&#58896;" d="M840.51891414 455.4802912c-17.90976853 0-29.8488864-11.93802667-29.84888747-29.84997867v-382.09325653c0-41.78909653-29.85325333-77.61081707-71.64671467-77.610816h-555.22684161c-41.79564587 0-89.5532096 35.82062933-89.55320959 77.610816V598.7682634600001c0 41.79018773 47.75756373 83.58365013 89.55320959 83.58365121h316.42264961c17.911952 0 29.85106987 11.93911787 29.85106986 29.85106879 0 17.91085973-11.93911787 29.84997867-29.85106986 29.84997867h-316.42264961c-83.58146773 0-149.25425707-59.70104853-149.25425705-143.28469867v-555.23120746c0-83.57819307 65.6738816-137.31186453 149.25425705-137.31186454h555.2279328c83.58474133 0 131.34557973 53.73367253 131.34558081 137.31186454V419.6640288c0 17.90649387-11.94130133 35.8162624-29.85106986 35.8162624m119.40537066 334.33350933l-47.758656 47.76083841c-35.82390293 35.82281173-95.5315008 35.82281173-131.3477632 0l-83.58037546-101.49232748-453.73997228-441.79539626v-11.93911787l-59.69995626-197.01509547 41.78909654-35.82062933 185.07816106 65.670608h11.93911787L858.43195734 574.88675306l101.49450986 83.58365014c35.81953707 35.82172053 35.81953707 95.5205856-0.0021824 131.34339733M267.38012053 133.09244906000004l29.8488864 83.58474134 53.73476374-53.73476373-83.58365014-29.84997761m137.31186454 59.69995628l-83.57928428 83.58146666L733.05921067 682.35191467 810.67002667 604.73673173 404.69198507 192.79240533999996m513.43665386 513.43883627l-59.69886506-59.70104747-89.5543008 89.55211732 59.7054144 59.7043232c5.96519253 0 17.90976853 5.967376 23.87714452 5.967376 5.97174187 0 17.90976853-5.967376 23.88151041-5.967376l47.76302186-47.7608384c5.97065067-11.944576 5.97065067-29.85543573-5.97392533-41.79455465m0 0z"  horiz-adv-x="1024" />

    
    <glyph glyph-name="plus-pause" unicode="&#59171;" d="M512 896c-282.765 0-512-229.235-512-512 0-282.765 229.235-512 512-512s512 229.235 512 512c0 282.765-229.235 512-512 512zM512-76.8c-254.080 0-460.8 206.72-460.8 460.8s206.72 460.8 460.8 460.8 460.8-206.72 460.8-460.8-206.72-460.8-460.8-460.8zM358.4 614.4h51.2v-460.8h-51.2v460.8zM614.4 614.4h51.2v-460.8h-51.2v460.8z"  horiz-adv-x="1024" />

    
    <glyph glyph-name="meitihezuo" unicode="&#58969;" d="M914.944-92.16h-319.488c-14.336 0-25.6 11.264-25.6 25.6s11.264 25.6 25.6 25.6h319.488c12.288 0 22.016 9.728 22.016 22.016V786.944c0 12.288-9.728 22.016-22.016 22.016h-806.4c-12.288 0-22.016-9.728-22.016-22.016v-325.12c0-14.336-11.264-25.6-25.6-25.6s-25.6 11.264-25.6 25.6v325.12c0 40.448 32.768 73.216 73.216 73.216h806.4c40.448 0 73.216-32.768 73.216-73.216v-806.4c0-39.936-32.768-72.704-73.216-72.704zM173.056-92.16c-14.336 0-25.6 11.264-25.6 25.6 0 47.616-38.4 86.016-86.016 86.016-14.336 0-25.6 11.264-25.6 25.6s11.264 25.6 25.6 25.6c75.776 0 137.216-61.44 137.216-137.216 0-14.336-11.264-25.6-25.6-25.6zM308.736-92.16c-14.336 0-25.6 11.264-25.6 25.6 0 122.368-99.328 221.696-221.696 221.696-14.336 0-25.6 11.264-25.6 25.6s11.264 25.6 25.6 25.6c150.528 0 272.896-122.368 272.896-272.896 0-14.336-11.776-25.6-25.6-25.6zM456.704-92.16c-14.336 0-25.6 11.264-25.6 25.6 0 203.776-165.888 369.664-369.664 369.664-14.336 0-25.6 11.264-25.6 25.6s11.264 25.6 25.6 25.6c231.936 0 420.864-188.928 420.864-420.864 0-14.336-11.264-25.6-25.6-25.6z"  horiz-adv-x="1024" />

    
    <glyph glyph-name="gouwuche" unicode="&#58929;" d="M841.998968 18.474877c-40.116113 0-72.750535-32.622546-72.750535-72.726783 0-40.092361 32.634422-72.714908 72.750535-72.714908 40.133926 0 72.780224 32.622546 72.780224 72.714908 0 40.104237-32.646298 72.726784-72.780224 72.726783zM330.506654 19.472436c-40.638644 0-73.712467-33.073823-73.712467-73.724342 0-40.644581 33.067885-73.700591 73.712467-73.700591 40.674271 0 73.759969 33.056009 73.759969 73.700591 0 40.650519-33.085699 73.724342-73.759969 73.724342zM1010.265754 751.30054c-19.939299 22.50445-47.372165 34.902681-77.192047 34.902681H198.347932a42.455626 42.455626 0 0 1-5.730025-0.427526l-1.716038 9.898396C183.930833 851.929279 146.148295 896 89.679345 896h-46.64181c-23.727648 0-43.037535-19.298012-43.037535-43.025659 0-23.739523 19.309887-43.049411 43.037535-43.049411h46.64181c12.908885 0 26.203731-12.683247 27.896018-26.607504l35.407398-204.737059 62.062405-436.752599c6.840403-56.409572 56.017674-94.655263 111.952219-94.655263l5.183743 0.023751h589.40284c23.727648 0 43.025659 13.336411 43.025659 37.040307 0 23.751399-19.298012 37.135312-43.025659 37.135312H321.059535c-12.303225 0-30.894632 18.068877-32.497852 31.518107l-3.271755 23.05667 1.454773 5.848782 620.255908 46.837759s23.38919 2.505773 42.66345 24.469879c20.723096 18.50234 28.038526 43.32849 31.345909 69.888491l57.662459 329.63379 0.047502 0.261265c4.524641 37.046244-5.842844 72.922733-28.454175 98.413922z m-38.96417-80.267853l-51.659293-335.48851-0.053441-0.267203c-1.692287-13.948009-7.523256-35.87055-19.832418-40.899909l-9.417429-1.995117L280.533711 243.893467c-1.526027-0.118757-3.14706-0.314706-4.815596-0.587847L226.226137 591.910839 205.408036 711.980099h727.665671c5.082799 0 21.138745-7.855775 24.606449-11.810383 5.914098-6.715708 14.850562-18.140131 13.621428-29.137029z"  horiz-adv-x="1039" />

    
    <glyph glyph-name="shijuan" unicode="&#58910;" d="M826.66666625-96H173.33333375c-45.33333375 5.33333344-82.66666688 42.66666656-88.00000031 88.00000031V775.99999969C90.66666688 821.33333344 128 856.00000031 173.33333375 864h437.3333325l306.6666675-261.33333375v-610.66666594c-7.99999969-45.33333375-45.33333375-82.66666688-90.6666675-88.00000031z m0 653.33333344h-173.3333325c-24 2.66666625-40.00000031 21.33333375-42.6666675 42.66666656V775.99999969H216.00000031c-24 0-42.66666656-18.66666656-42.66666656-42.66666656v-698.66666625c5.33333344-21.33333375 21.33333375-40.00000031 42.66666656-42.66666657h567.99999938c24 2.66666625 42.66666656 21.33333375 42.66666656 42.66666657V557.3333334399999z m-511.99999969-480c-5.33333344 0-7.99999969 5.33333344-7.99999968 7.99999968 0 2.66666625 2.66666625 7.99999969 5.33333343 8.00000063C434.66666656 144 567.99999969 170.66666625000005 698.66666656 175.99999968999998v-2.66666625c10.66666687 0 24 2.66666625 34.66666688 2.66666625v-5.33333344c-133.33333312-13.33333313-264-40.00000031-389.33333344-79.99999969-7.99999969-7.99999969-18.66666656-10.66666687-29.33333344-13.33333312zM618.66666688 229.33333312000002c-13.33333313 0-26.66666625 2.66666625-34.66666688 13.33333313s-16.00000031 21.33333375-16.00000031 34.66666688c0 37.33333312 10.66666687 72 34.66666687 101.33333343 21.33333375 29.33333344 53.33333344 50.66666625 88.00000032 64.00000031 13.33333313 0 24-7.99999969 29.33333343-18.66666656-2.66666625-2.66666625-5.33333344-5.33333344-8.00000062-5.33333344 13.33333313-5.33333344 18.66666656-16.00000031 18.66666656-29.33333343 2.66666625-74.66666625-45.33333375-141.33333375-111.99999937-160.00000031z m72 170.66666719c-5.33333344-2.66666625-13.33333313-7.99999969-18.66666657-13.33333406-2.66666625 0-2.66666625 2.66666625-2.66666718 5.33333344-40.00000031-24-66.66666656-66.66666656-69.33333282-111.99999938 0-5.33333344 2.66666625-24 10.66666594-21.33333375 13.33333313 5.33333344 24 10.66666687 32.00000062 21.33333375l26.66666625 29.33333344c16.00000031 21.33333375 26.66666625 48 32.00000063 74.66666625 5.33333344 7.99999969-2.66666625 13.33333313-10.66666687 16.00000031z m-152.00000063 186.66666656H221.33333375c-10.66666687 0-18.66666656 7.99999969-18.6666675 18.66666657 0 5.33333344 2.66666625 10.66666687 5.33333344 13.33333312 2.66666625 5.33333344 7.99999969 7.99999969 13.33333406 7.99999969H538.66666625c5.33333344 0 10.66666687-2.66666625 13.33333406-5.3333325 2.66666625-2.66666625 5.33333344-7.99999969 5.33333344-13.33333406s-2.66666625-10.66666687-5.33333344-13.33333313-7.99999969-7.99999969-13.33333406-7.99999969zM221.33333375 546.6666665600001H378.66666688c5.33333344 0 10.66666687-2.66666625 13.33333312-5.33333343s5.33333344-7.99999969 5.33333344-13.33333313-2.66666625-10.66666687-5.33333344-13.33333313-7.99999969-5.33333344-13.33333313-5.33333343H221.33333375c-10.66666687 0-18.66666656 7.99999969-18.6666675 18.66666656 0 5.33333344 2.66666625 10.66666687 5.33333344 13.33333312 2.66666625 2.66666625 7.99999969 5.33333344 13.33333406 5.33333344z m101.3333325-184.00000031l-29.3333325-13.33333313c-2.66666625-2.66666625-5.33333344-2.66666625-8.00000063-2.66666625-2.66666625 0-2.66666625 5.33333344-2.66666624 7.99999969 0 7.99999969 5.33333344 13.33333313 13.33333312 16.00000031 16.00000031 13.33333313 31.99999969 24 50.66666625 31.99999969 7.99999969-2.66666625 13.33333313-10.66666687 16.00000031-18.66666656 0-7.99999969 0-7.99999969-37.33333312-93.33333375-13.33333313-26.66666625-24-55.99999969-26.66666719-85.33333313 0-2.66666625 2.66666625-7.99999969 2.66666719-10.66666687v-2.66666625l-2.66666719-2.66666625c-2.66666625 0-5.33333344 0-5.3333325 2.66666625-13.33333313 0-24 7.99999969-26.66666719 21.33333375 0 21.33333375 5.33333344 45.33333375 13.33333313 63.99999937 10.66666687 29.33333344 26.66666625 55.99999969 42.66666656 85.33333313z m234.6666675 2.66666719c5.33333344-72-40.00000031-136.00000031-109.33333406-154.66666688-13.33333313 0-26.66666625 2.66666625-34.66666594 13.33333313-10.66666687 7.99999969-16.00000031 21.33333375-16.00000031 34.66666687 0 37.33333312 10.66666687 72 34.66666687 101.33333344 21.33333375 29.33333344 53.33333344 50.66666625 87.99999938 64.00000031 13.33333313 0 24-7.99999969 29.33333344-18.66666656-2.66666625-2.66666625-5.33333344-5.33333344-7.99999969-5.33333344 7.99999969-7.99999969 16.00000031-21.33333375 16.00000031-34.66666687z m-37.33333406 16.00000031c-5.33333344-2.66666625-13.33333313-7.99999969-18.66666656-13.33333406-2.66666625 0-2.66666625 2.66666625-2.66666625 5.33333343-40.00000031-24-66.66666656-66.66666656-69.33333375-111.99999937 0-5.33333344 2.66666625-24 10.66666687-21.33333375 13.33333313 5.33333344 24 10.66666687 31.99999969 21.33333375l26.66666719 29.3333325c16.00000031 21.33333375 26.66666625 48 31.99999968 74.66666719 5.33333344 7.99999969-2.66666625 13.33333313-10.66666687 16.00000031z m-242.66666625-256.00000031c122.66666625 50.66666625 256.00000031 77.33333344 386.66666625 82.66666687v-2.66666719c13.33333313 0 24 2.66666625 34.66666687 2.66666719v-5.33333344c-133.33333312-13.33333313-264-40.00000031-389.33333343-80.00000062-10.66666687-5.33333344-18.66666656-7.99999969-29.33333344-10.66666594h-2.66666625c-2.66666625 0-5.33333344 2.66666625-5.33333344 7.99999969l5.33333344 5.33333344z"  horiz-adv-x="1024" />

    
    <glyph glyph-name="gouwuche1" unicode="&#58920;" d="M512-99.555556c267.064889 0 483.555556 216.490667 483.555556 483.555556S779.064889 867.555556 512 867.555556 28.444444 651.064889 28.444444 384s216.490667-483.555556 483.555556-483.555556z m0-28.444444C229.233778-128 0 101.233778 0 384S229.233778 896 512 896s512-229.233778 512-512-229.233778-512-512-512z m280.32 629.560889l-66.161778-187.761778a65.308444 65.308444 0 0 0-61.354666-43.690667H406.471111a65.422222 65.422222 0 0 0-63.857778 52.963556l-43.804444 223.630222-14.478222 67.072H235.832889a13.994667 13.994667 0 0 0-13.966222 14.051556c0 7.793778 6.257778 14.08 13.966222 14.08h59.733333c0.455111 0 0.824889-0.227556 1.223111-0.284445a13.112889 13.112889 0 0 0 5.205334-1.507555 13.368889 13.368889 0 0 0 2.218666-1.507556c0.711111-0.568889 1.308444-1.137778 1.905778-1.820444a14.136889 14.136889 0 0 0 1.422222-2.161778c0.483556-0.853333 0.853333-1.706667 1.137778-2.616889 0.142222-0.426667 0.455111-0.739556 0.540445-1.194667l14.506666-67.128888h425.102222c14.961778 0 29.070222-7.338667 37.688889-19.683556 8.675556-12.316444 10.808889-28.188444 5.802667-42.467556z m-28.586667 26.225778a17.948444 17.948444 0 0 1-14.904889 7.793777H329.443556l40.533333-207.075555c3.441778-17.493333 18.773333-30.236444 36.494222-30.236445h258.332445c15.701333 0 29.809778 10.040889 35.072 24.974223l66.161777 187.733333a18.318222 18.318222 0 0 1-2.304 16.782222zM396.344889 239.587556c31.032889 0 56.263111-25.457778 56.263111-56.746667s-25.230222-56.746667-56.263111-56.746667a56.576 56.576 0 0 0-56.263111 56.746667c0 31.288889 25.230222 56.746667 56.263111 56.746667z m0-85.333334c15.644444 0 28.359111 12.8 28.359111 28.586667 0 15.758222-12.714667 28.558222-28.359111 28.558222s-28.330667-12.8-28.330667-28.558222c0-15.786667 12.714667-28.615111 28.330667-28.615111z m248.661333 85.333334c31.004444 0 56.234667-25.457778 56.234667-56.746667s-25.230222-56.746667-56.234667-56.746667a56.547556 56.547556 0 0 0-56.234666 56.746667c0 31.288889 25.230222 56.746667 56.234666 56.746667z m0-85.333334c15.644444 0 28.359111 12.8 28.359111 28.586667 0 15.758222-12.743111 28.558222-28.359111 28.558222-15.644444 0-28.359111-12.8-28.359111-28.558222 0-15.786667 12.714667-28.615111 28.359111-28.615111z"  horiz-adv-x="1024" />

    
    <glyph glyph-name="web-icon-" unicode="&#59064;" d="M864.3640659 2.3193946500000493H159.6359341a117.40755593 117.40755593 0 0 0-117.40755593 117.40755592V648.27304943a117.40755593 117.40755593 0 0 0 117.40755593 117.40755592h704.7281318a117.40755593 117.40755593 0 0 0 117.40755593-117.40755592v-528.59323155a117.26615783 117.26615783 0 0 0-117.40755593-117.36042323M159.6359341 60.952473560000044h704.7281318c32.42729765 0 58.77447702 26.30004666 58.77447702 58.77447701v411.04427753H101.00285519v-411.04427753c0-32.47443037 26.30004666-58.77447702 58.63307891-58.77447701M864.3640659 706.90612835H159.6359341c-32.42729765 0-58.77447702-26.30004666-58.77447702-58.77447703v-58.77447702H922.99714481v58.86874243a58.44454811 58.44454811 0 0 1-58.63307891 58.68021162M189.09387165 354.63632783h293.54245618a29.36367217 29.36367217 0 0 0 0-58.6330789H189.09387165a29.22227406 29.22227406 0 0 0-29.31653945 29.31653944 29.22227406 29.22227406 0 0 0 29.31653945 29.31653946m0-117.40755593h234.90937728a29.36367217 29.36367217 0 0 0 0-58.63307891H189.09387165a29.22227406 29.22227406 0 0 0-29.31653945 29.31653946 29.17514135 29.17514135 0 0 0 29.31653945 29.31653945m411.04427752 117.40755593h58.77447703a29.36367217 29.36367217 0 0 0 0-58.6330789H600.13814917a29.31653946 29.31653946 0 0 0 0 58.6330789m0 0z"  horiz-adv-x="1024" />

    
    <glyph glyph-name="yinliang" unicode="&#58907;" d="M168.59136 225.64864H100.5568c-12.53376 0-24.08448 13.55776-24.08448 31.744V506.34752c0 18.0224 11.75552 31.744 24.08448 31.744h68.03456a20.48 20.48 0 1 1 0 40.96H100.5568c-36.4544 0-65.04448-33.30048-65.04448-72.704v-248.95488c0-39.48544 28.34432-72.704 65.04448-72.704h68.03456a20.48 20.48 0 1 1 0 40.96zM454.57408 682.27072l174.4896 89.53856c8.31488 4.25984 10.60864 2.74432 10.60864-8.6016v-766.07488c0-10.97728-2.08896-12.288-10.07616-8.02816l-346.68544 184.60672c-15.40096 8.192-29.32736 31.90784-29.32736 50.09408v321.1264c0 18.30912 13.68064 41.24672 29.04064 49.152l96.17408 49.3568a20.48 20.48 0 0 1-18.67776 36.4544L263.94624 630.49728c-29.24544-14.99136-51.32288-52.14208-51.32288-85.6064v-321.1264c0-33.1776 22.1184-70.8608 51.03616-86.2208l346.68544-184.64768c35.88096-19.12832 70.28736 2.99008 70.28736 44.2368V763.20768c0 41.1648-33.95584 63.65184-70.28736 45.01504l-174.4896-89.53856a20.48 20.48 0 1 1 18.71872-36.4544zM742.8096 564.30592c8.27392 1.2288 16.67072 1.8432 25.14944 1.8432 97.28 0 176.5376-82.944 176.5376-185.67168 0-102.72768-79.2576-185.67168-176.5376-185.67168-8.47872 0-16.87552 0.6144-25.14944 1.8432a20.48 20.48 0 1 1-6.06208-40.50944c10.28096-1.51552 20.6848-2.29376 31.21152-2.29376 120.34048 0 217.4976 101.66272 217.4976 226.63168 0 124.928-97.15712 226.63168-217.4976 226.63168-10.52672 0-20.8896-0.77824-31.21152-2.29376a20.48 20.48 0 1 1 6.06208-40.5504z"  horiz-adv-x="1024" />

    
    <glyph glyph-name="daan" unicode="&#58892;" d="M931.3 384.9C931.3 615.3 744.5 802 514.2 802S97 615.3 97 384.9c0-230.4 186.8-417.1 417.1-417.1 79.1 0 153 22 216.1 60.2l201.1-60.2-82.7 167.8c52 69.6 82.7 155.9 82.7 249.3zM554.8 134h-64.5v62.5h64.5V134z m-4 432l-5.3-236c-0.7-27.9-0.7-27.9-0.7-30.6 0-12 0.7-23.9 2-40.5h-49.2c1.3 20.6 1.3 24.6 1.3 47.2V330L493 566c-0.7 27.9-1.3 47.8-4 73.1h65.8c-2-25.3-3.4-45.2-4-73.1z"  horiz-adv-x="1024" />

    
    <glyph glyph-name="renyuanzengjia" unicode="&#59015;" d="M928 160H800V288c0 16-12.8 32-32 32s-32-12.8-32-32v-128H608c-16 0-32-12.8-32-32s12.8-32 32-32h128v-128c0-16 12.8-32 32-32s32 12.8 32 32V96h128c16 0 32 12.8 32 32s-12.8 32-32 32zM768 576c0 140.8-115.2 256-256 256S256 716.8 256 576c0-89.6 44.8-169.6 115.2-214.4C192 304 64 134.39999999999998 64-64h64c0 211.2 172.8 384 384 384 140.8 0 256 115.2 256 256zM512 384c-105.6 0-192 86.4-192 192s86.4 192 192 192 192-86.4 192-192-86.4-192-192-192z"  horiz-adv-x="1024" />

    
    <glyph glyph-name="fabuzhuanjiawenzhang" unicode="&#58942;" d="M338.823529 636.235294h376.470589a7.529412 7.529412 0 0 1 0 15.058824h-376.470589a7.529412 7.529412 0 0 1 0-15.058824zM338.823529 485.647059h286.117647a7.529412 7.529412 0 0 1 0 15.058823h-286.117647a7.529412 7.529412 0 0 1 0-15.058823zM338.823529 380.235294h210.82353a7.529412 7.529412 0 0 1 0 15.058824h-210.82353a7.529412 7.529412 0 0 1 0-15.058824zM338.823529 274.823529h210.82353a7.529412 7.529412 0 0 1 0 15.058824h-210.82353a7.529412 7.529412 0 0 1 0-15.058824zM255.864471 488.116706a7.619765 7.619765 0 0 1-10.285177 2.816L135.68 428.107294a7.559529 7.559529 0 0 1-2.816-10.285176 7.574588 7.574588 0 0 1 10.285176-2.816l109.914353 62.825411a7.544471 7.544471 0 0 1 2.800942 10.285177zM257.746824 342.046118a7.529412 7.529412 0 0 1-10.270118 2.800941l-48.414118-27.678118a7.529412 7.529412 0 1 1 7.469177-13.071059l48.414117 27.678118a7.499294 7.499294 0 0 1 2.800942 10.270118zM251.181176 222.117647c-1.355294-1.355294-2.258824-3.312941-2.258823-5.406118a7.499294 7.499294 0 0 1 7.529412-7.393882c1.972706 0 3.930353 0.752941 5.285647 2.108235a7.664941 7.664941 0 0 1 0.135529 10.691765c-2.861176 2.861176-8.282353 2.56-10.691765 0zM309.744941 119.717647c-1.505882-1.355294-2.243765-3.312941-2.243765-5.270588 0-2.123294 0.752941-4.080941 2.108236-5.421177 1.520941-1.355294 3.312941-2.108235 5.421176-2.108235 1.957647 0 3.915294 0.752941 5.270588 2.243765a7.303529 7.303529 0 0 1 0 10.556235c-2.710588 2.876235-7.996235 2.876235-10.556235 0zM994.439529 524.182588L805.647059 668.777412v51.425882c0 40.463059-39.619765 81.679059-78.516706 81.679059H331.715765c-40.794353 0-68.186353-41.908706-68.186353-81.061647v-43.986824L41.938824 550.159059c-16.850824-9.637647-28.958118-25.298824-34.093177-44.122353s-2.665412-38.475294 6.972235-55.311059L279.341176-12.016941a72.402824 72.402824 0 0 1 44.122353-34.093177 72.176941 72.176941 0 0 1 55.326118 6.972236l134.068706 76.649411 71.333647-54.106353c12.754824-9.682824 28.009412-14.757647 43.821176-14.757647 3.358118 0 6.731294 0.240941 10.134589 0.692706a72.463059 72.463059 0 0 1 48.158117 28.084706l322.108236 424.673883a73.005176 73.005176 0 0 1-13.974589 102.083764zM293.647059 720.820706c0 24.048941 16.278588 50.944 38.068706 50.944h395.414588c22.166588 0 48.399059-27.934118 48.399059-51.561412V195.011765c0-26.413176-27.060706-40.658824-52.510118-40.658824h-61.500235l-0.256 0.451765-0.813177-0.451765H340.886588c-23.521882 0-47.239529 12.574118-47.239529 40.658824V720.820706z m70.189176-733.801412c-9.863529-5.616941-21.383529-7.077647-32.451764-4.065882a42.450824 42.450824 0 0 0-25.901177 19.968L40.975059 465.679059c-5.632 9.863529-7.077647 21.383529-4.065883 32.436706s10.104471 20.269176 19.968 25.901176L278.588235 650.752V195.011765c0-32.813176 25.615059-55.717647 62.298353-55.717647h292.698353l-124.641882-69.857883-0.542118-0.180706-0.180706 0.316236-1.611294-0.918589-0.225882-0.12047-142.546824-81.513412z m298.450824 28.611765a42.465882 42.465882 0 0 0-28.265412-16.459294 42.736941 42.736941 0 0 0-31.653647 8.237176l-73.637647 55.853177 135.649882 76.032h58.624c14.802824 0 29.846588 4.186353 42.089412 11.881411l-102.806588-135.54447z m322.108235 424.673882L789.097412 182.814118c0.933647 3.84 1.490824 7.875765 1.490823 12.197647V642.364235l185.584941-142.140235a42.812235 42.812235 0 0 0 8.222118-59.919059zM815.013647 468.871529a7.529412 7.529412 0 0 1-9.080471-12.001882l70.625883-53.579294a7.529412 7.529412 0 1 1 9.08047 11.986823l-70.625882 53.594353zM798.418824 312.786824c-1.355294-1.520941-2.108235-3.328-2.108236-5.285648a7.755294 7.755294 0 0 1 7.529412-7.529411 7.469176 7.469176 0 0 1 7.529412 7.529411c0 1.957647-0.752941 3.764706-2.258824 5.421177-2.710588 2.710588-7.228235 3.011765-10.691764-0.135529z"  horiz-adv-x="1024" />

    
    <glyph glyph-name="answer" unicode="&#59160;" d="M844.8 759.466667H179.2c-46.933333 0-85.333333-38.4-85.333333-85.333334v-490.666666c0-46.933333 38.4-85.333333 85.333333-85.333334h102.4c12.8 0 21.333333 8.533333 21.333333 21.333334s-8.533333 21.333333-21.333333 21.333333H179.2c-23.466667 0-42.666667 19.2-42.666667 42.666667v490.666666c0 23.466667 19.2 42.666667 42.666667 42.666667h663.466667c23.466667 0 42.666667-19.2 42.666666-42.666667v-490.666666c0-23.466667-19.2-42.666667-42.666666-42.666667h-204.8-2.133334c-6.4 0-12.8 0-17.066666-4.266667L512 42.666667l-106.666667 93.866666c-8.533333 8.533333-21.333333 6.4-29.866666-2.133333-8.533333-8.533333-6.4-21.333333 2.133333-29.866667l119.466667-106.666666c4.266667-4.266667 8.533333-6.4 14.933333-6.4s10.666667 2.133333 14.933333 6.4l115.2 102.4h202.666667c46.933333 0 85.333333 38.4 85.333333 85.333333v490.666667c0 44.8-38.4 83.2-85.333333 83.2zM746.666667 516.266667H277.333333c-12.8 0-21.333333-10.666667-21.333333-21.333334s8.533333-21.333333 21.333333-21.333333h469.333334c10.666667 0 21.333333 10.666667 21.333333 21.333333s-8.533333 21.333333-21.333333 21.333334zM277.333333 326.4h371.2c10.666667 0 21.333333 10.666667 21.333334 21.333333s-10.666667 21.333333-21.333334 21.333334H277.333333c-12.8 0-21.333333-10.666667-21.333333-21.333334s10.666667-21.333333 21.333333-21.333333zM740.266667 347.733333m-29.866667 0a29.866667 29.866667 0 1 1 59.733333 0 29.866667 29.866667 0 1 1-59.733333 0Z"  horiz-adv-x="1024" />

    
    <glyph glyph-name="wode-" unicode="&#58887;" d="M725.22666667 387.62666667c-54.61333333-49.92-127.04-80.53333333-206.82666667-80.53333334-81.17333333 0-154.77333333 31.68-209.70666667 83.2C181.33333333 355.62666666999996 102.4 237.22666667 102.4 96.10666666999998v-72.10666667c0-168.21333333 819.09333333-168.21333333 819.09333333 0v72.10666667c0.10666667 137.49333333-74.66666667 253.65333333-196.26666666 291.52zM518.4 358.18666667c141.33333333 0 256 114.56 256 256s-114.56 256-256 256c-141.33333333 0-256-114.56-256-256s114.66666667-256 256-256z"  horiz-adv-x="1024" />

    
    <glyph glyph-name="BAI-pinglun" unicode="&#59069;" d="M784.37085235 844.33780939H239.62914765c-112.49537581 0-204.01923161-100.06780839-204.0192316-223.04894421v-365.18924642c0-122.98113581 91.52385581-223.04894419 204.0192316-223.04894419h127.90038124c5.95487605 0 11.65084445-3.10689185 15.79336692-8.41449876l45.69720099-59.80766816c19.93588939-26.02021925 50.09863111-40.90740939 82.85044937-40.90740938 32.75181827 0 63.04401383 14.88719013 82.85044938 40.90740938l45.69720098 59.80766816c4.14252247 5.43706075 9.83849086 8.41449876 15.79336694 8.41449876h127.90038122c112.49537581 0 204.01923161 100.06780839 204.01923161 223.04894419v365.0597926c0.12945383 123.11058963-91.39440197 223.17839803-203.76032395 223.17839803z m152.1082469-588.36764445c0-94.50129383-68.22216691-171.26741333-152.23770073-171.26741333h-127.90038124c-22.13660445 0-42.8492168-10.48576-56.83023011-28.73874964l-45.697201-59.80766814c-10.09739852-13.07483653-25.2434963-20.58315852-41.81358617-20.58315852-16.57008987 0-31.71618765 7.50832197-41.81358617 20.58315852l-45.697201 59.80766814c-13.98101333 18.25298963-34.69362569 28.73874963-56.83023011 28.73874964h-127.90038124c-83.88608 0-152.23770075 76.89557333-152.23770073 171.26741333V621.1594113599999c0 94.50129383 68.22216691 171.26741333 152.23770073 171.26741333h544.61225087c83.88608 0 152.23770075-76.89557333 152.23770074-171.26741333v-365.18924642zM738.4147437 568.60115753h-455.6774716c-14.23992098 0-25.89076543-11.65084445-25.89076543-25.89076543s11.65084445-25.89076543 25.89076543-25.89076543h455.6774716c14.23992098 0 25.89076543 11.65084445 25.89076544 25.89076543s-11.65084445 25.89076543-25.89076544 25.89076543zM738.4147437 330.40611555h-455.6774716c-14.23992098 0-25.89076543-11.65084445-25.89076543-25.89076542s11.65084445-25.89076543 25.89076543-25.89076544h455.6774716c14.23992098 0 25.89076543 11.65084445 25.89076544 25.89076544s-11.65084445 25.89076543-25.89076544 25.89076542z"  horiz-adv-x="1024" />

    
    <glyph glyph-name="diannao" unicode="&#58944;" d="M938.666667 85.333333H533.333333v-85.333333h213.333334c12.8 0 21.333333-8.533333 21.333333-21.333333s-8.533333-21.333333-21.333333-21.333334H277.333333c-12.8 0-21.333333 8.533333-21.333333 21.333334s8.533333 21.333333 21.333333 21.333333h213.333334v85.333333H85.333333c-36.266667 0-64 27.733333-64 64V746.666667c0 36.266667 27.733333 64 64 64h853.333334c36.266667 0 64-27.733333 64-64v-597.333334c0-36.266667-27.733333-64-64-64z m21.333333 661.333334c0 12.8-8.533333 21.333333-21.333333 21.333333H85.333333c-12.8 0-21.333333-8.533333-21.333333-21.333333v-512h896V746.666667z m0-554.666667H64v-42.666667c0-12.8 8.533333-21.333333 21.333333-21.333333h853.333334c12.8 0 21.333333 8.533333 21.333333 21.333333v42.666667z"  horiz-adv-x="1024" />

    
    <glyph glyph-name="shanchu" unicode="&#58968;" d="M810.66666667 682.66666667v-716.8H213.33333333V682.66666667h597.33333334m59.73333333 59.73333333H153.6v-776.53333333c0-32.96 26.77333333-59.73333333 59.73333333-59.73333334h597.33333334c32.96 0 59.73333333 26.77333333 59.73333333 59.73333334V742.4zM960 742.4H64c-16.53333333 0-29.86666667-13.33333333-29.86666667-29.86666667s13.33333333-29.86666667 29.86666667-29.86666666h896c16.53333333 0 29.86666667 13.33333333 29.86666667 29.86666666s-13.33333333 29.86666667-29.86666667 29.86666667zM691.2 802.13333333v-59.73333333H336.53333333v59.73333333H691.2m0 59.73333334H336.53333333c-32.96 0-59.73333333-26.77333333-59.73333333-59.73333334v-119.46666666H750.93333333V802.13333333c0 32.96-26.77333333 59.73333333-59.73333333 59.73333334zM362.66666667 563.2c-16.53333333 0-29.86666667-13.33333333-29.86666667-29.86666667v-418.13333333c0-16.53333333 13.33333333-29.86666667 29.86666667-29.86666667s29.86666667 13.33333333 29.86666666 29.86666667V533.33333333c0 16.53333333-13.33333333 29.86666667-29.86666666 29.86666667zM512 563.2c-16.53333333 0-29.86666667-13.33333333-29.86666667-29.86666667v-418.13333333c0-16.53333333 13.33333333-29.86666667 29.86666667-29.86666667s29.86666667 13.33333333 29.86666667 29.86666667V533.33333333c0 16.53333333-13.33333333 29.86666667-29.86666667 29.86666667zM661.33333333 563.2c-16.53333333 0-29.86666667-13.33333333-29.86666666-29.86666667v-418.13333333c0-16.53333333 13.33333333-29.86666667 29.86666666-29.86666667s29.86666667 13.33333333 29.86666667 29.86666667V533.33333333c0 16.53333333-13.33333333 29.86666667-29.86666667 29.86666667z"  horiz-adv-x="1024" />

    
    <glyph glyph-name="daishouhuo" unicode="&#58886;" d="M933.269 416.97c14.36 0 26 11.642 26 26.002V634.704c0 67.572-54.973 122.546-122.545 122.546H491.698c-67.572 0-122.546-54.974-122.546-122.546v-10.852H247.057c-32.384 0-62.537-14.521-82.728-39.84l-92.546-116.05c-20.381-25.558-31.605-57.634-31.605-90.322v-250.075h70.229c2.961-62.838 55.006-113.05 118.563-113.05s115.603 50.211 118.564 113.05h255.768c2.962-62.838 55.007-113.05 118.564-113.05 63.578 0 115.635 50.244 118.566 113.11 65.863 1.968 118.838 56.154 118.838 122.485v36.854c0 14.36-11.641 26.001-26.001 26.001s-26.002-11.641-26.002-26.001v-36.854c0-38.898-31.645-70.544-70.543-70.544h-5.582c-18.09 42.488-60.26 72.352-109.276 72.352s-91.186-29.864-109.276-72.352H421.154V634.704c0 38.898 31.646 70.544 70.544 70.544h345.026c38.898 0 70.543-31.646 70.543-70.544v-191.732c0-14.36 11.64-26.001 26.002-26.001z m-704.3-350.453c-36.777 0-66.698 29.922-66.698 66.7s29.921 66.7 66.699 66.7 66.699-29.921 66.699-66.7-29.92-66.7-66.7-66.7z m109.278 113.05c-18.09 42.488-60.26 72.352-109.276 72.352-49.015 0-91.186-29.864-109.276-72.352H92.18V377.64c0 20.954 7.195 41.516 20.26 57.899l92.546 116.05c10.267 12.875 25.602 20.26 42.07 20.26h122.096v-392.282h-30.905z m383.619 20.348c36.777 0 66.699-29.92 66.699-66.699s-29.92-66.7-66.7-66.7-66.698 29.922-66.698 66.7 29.92 66.7 66.699 66.7zM303.583 558.282c-14.36 0-26.001-11.64-26.001-26v-100.614H176.968c-14.36 0-26.002-11.641-26.002-26.002s11.641-26 26.002-26h152.616V532.28c0 14.36-11.64 26.001-26 26.001z"  horiz-adv-x="1024" />

    
    </font>
</defs>
</svg>
